<svg width="18" height="18" viewBox="0 0 18 18" fill="none" xmlns="http://www.w3.org/2000/svg">
<path d="M4.35421 5.66659V15.0199C4.35438 15.1914 4.42257 15.3558 4.54381 15.477C4.66504 15.5982 4.82942 15.6664 5.00087 15.6666H13.0209C13.3782 15.6666 13.6675 15.3766 13.6675 15.0199V5.66659H4.35421ZM13.0209 16.9999H5.00087C3.90954 16.9999 3.02087 16.1119 3.02087 15.0199V4.33325H15.0009V15.0199C15.0009 16.1119 14.1129 16.9999 13.0209 16.9999Z" fill="#94979B"/>
<path d="M16.3333 5.66667H1.66667C1.3 5.66667 1 5.36667 1 5C1 4.63333 1.3 4.33333 1.66667 4.33333H16.3333C16.7 4.33333 17 4.63333 17 5C17 5.36667 16.7 5.66667 16.3333 5.66667ZM13 4.33333H11.6667V3C11.6667 2.63267 11.368 2.33333 11 2.33333H7C6.63267 2.33333 6.33333 2.63267 6.33333 3V4.33333H5V3C5 1.89733 5.89733 1 7 1H11C12.1027 1 13 1.89733 13 3V4.33333ZM7 13.6667C6.63333 13.6667 6.33333 13.3667 6.33333 13V8.33333C6.33333 7.96667 6.63333 7.66667 7 7.66667C7.36667 7.66667 7.66667 7.96667 7.66667 8.33333V13C7.66667 13.3667 7.36667 13.6667 7 13.6667ZM11 13.6667C10.6333 13.6667 10.3333 13.3667 10.3333 13V8.33333C10.3333 7.96667 10.6333 7.66667 11 7.66667C11.3667 7.66667 11.6667 7.96667 11.6667 8.33333V13C11.6667 13.3667 11.3667 13.6667 11 13.6667Z" fill="#94979B"/>
</svg>
