<svg width="48" height="40" viewBox="0 0 48 40" fill="none" xmlns="http://www.w3.org/2000/svg">
<path d="M31.9977 28.0017L23.9977 20.0017L15.9977 28.0017" stroke="black" stroke-width="2.6" stroke-linecap="round" stroke-linejoin="round"/>
<path d="M23.9991 20.0017V38.0017" stroke="black" stroke-width="2.6" stroke-linecap="round" stroke-linejoin="round"/>
<path d="M40.7774 32.7814C42.728 31.718 44.269 30.0352 45.1571 27.9987C46.0452 25.9622 46.2298 23.6879 45.6818 21.5348C45.1338 19.3817 43.8843 17.4725 42.1307 16.1083C40.3771 14.7442 38.2191 14.0029 35.9974 14.0014H33.4774C32.872 11.6599 31.7437 9.4861 30.1773 7.64342C28.6108 5.80074 26.647 4.33713 24.4336 3.36265C22.2201 2.38816 19.8145 1.92815 17.3976 2.0172C14.9807 2.10624 12.6155 2.74203 10.4797 3.87676C8.34393 5.01149 6.49318 6.61564 5.0666 8.5686C3.64002 10.5216 2.67474 12.7725 2.24332 15.1522C1.8119 17.5319 1.92557 19.9785 2.57578 22.308C3.226 24.6374 4.39584 26.7892 5.99736 28.6014" stroke="black" stroke-width="2.6" stroke-linecap="round" stroke-linejoin="round"/>
<path d="M31.9977 28.0017L23.9977 20.0017L15.9977 28.0017" stroke="black" stroke-width="2.6" stroke-linecap="round" stroke-linejoin="round"/>
</svg>
