<svg width="24" height="24" viewBox="0 0 24 24" fill="none" xmlns="http://www.w3.org/2000/svg">
<path d="M19.2351 3.39505C18.8718 3.39505 18.5233 3.53939 18.2664 3.79632C18.0095 4.05324 17.8651 4.40171 17.8651 4.76505C17.8651 5.1284 18.0095 5.47686 18.2664 5.73379C18.5233 5.99071 18.8718 6.13505 19.2351 6.13505C19.5985 6.13505 19.9469 5.99071 20.2039 5.73379C20.4608 5.47686 20.6051 5.1284 20.6051 4.76505C20.6051 4.40171 20.4608 4.05324 20.2039 3.79632C19.9469 3.53939 19.5985 3.39505 19.2351 3.39505ZM16.4701 4.76505C16.4701 4.15591 16.6712 3.56381 17.0423 3.08072C17.4134 2.59763 17.9336 2.2506 18.5221 2.09352C19.1106 1.93643 19.7346 1.9781 20.297 2.21204C20.8594 2.44598 21.3289 2.8591 21.6324 3.38724C21.9359 3.91537 22.0566 4.52896 21.9756 5.13269C21.8946 5.73643 21.6165 6.29651 21.1844 6.72596C20.7524 7.15541 20.1907 7.43017 19.5865 7.50759C18.9823 7.585 18.3694 7.46072 17.8431 7.15405L15.2181 9.98005C15.5861 10.5651 15.7981 11.2581 15.7981 11.9991C15.7981 12.7311 15.5911 13.4151 15.2321 13.9961L17.3951 16.1361C17.8962 15.6895 18.5427 15.4406 19.2138 15.4355C19.885 15.4305 20.5351 15.6698 21.0428 16.1087C21.5506 16.5477 21.8813 17.1563 21.9734 17.8212C22.0655 18.486 21.9126 19.1617 21.5432 19.7221C21.1738 20.2825 20.6132 20.6894 19.966 20.867C19.3187 21.0445 18.6289 20.9805 18.0253 20.687C17.4217 20.3935 16.9455 19.8904 16.6855 19.2716C16.4255 18.6529 16.3994 17.9606 16.6121 17.3241L14.2921 15.0281C13.6332 15.5293 12.828 15.8005 12.0001 15.8001C11.2651 15.8001 10.5781 15.5901 9.99612 15.2281L7.21812 17.9601C7.52853 18.5565 7.611 19.2455 7.4501 19.8983C7.2892 20.5511 6.89595 21.123 6.34393 21.5068C5.79192 21.8906 5.11896 22.0602 4.45098 21.9837C3.783 21.9072 3.16577 21.59 2.71477 21.0913C2.26378 20.5927 2.00992 19.9468 2.00071 19.2745C1.99149 18.6022 2.22755 17.9496 2.66471 17.4388C3.10187 16.928 3.71017 16.594 4.37581 16.4992C5.04144 16.4045 5.71879 16.5555 6.28112 16.9241L8.96512 14.2851C8.46865 13.6269 8.20074 12.8245 8.20212 12.0001C8.20212 11.2901 8.39712 10.6241 8.73712 10.0551L6.32812 8.07905C5.77344 8.45911 5.09928 8.62403 4.43179 8.54294C3.76431 8.46186 3.14924 8.14032 2.7017 7.63851C2.25416 7.13669 2.0048 6.48899 2.00031 5.81661C1.99581 5.14424 2.23648 4.49326 2.67727 3.9855C3.11806 3.47775 3.72877 3.14802 4.39511 3.05801C5.06145 2.968 5.73776 3.12388 6.29747 3.49649C6.85718 3.8691 7.26194 4.43289 7.436 5.08236C7.61005 5.73184 7.54148 6.42248 7.24312 7.02505L9.66112 9.00705C10.3286 8.48426 11.1523 8.20077 12.0001 8.20205C12.8501 8.20205 13.6361 8.48205 14.2691 8.95305L16.8531 6.16905C16.6018 5.7439 16.4695 5.25894 16.4701 4.76505ZM4.76512 4.42905C4.58216 4.42411 4.40006 4.45587 4.22959 4.52247C4.05911 4.58908 3.9037 4.68916 3.77255 4.81682C3.64139 4.94448 3.53715 5.09712 3.46596 5.26574C3.39478 5.43436 3.35811 5.61553 3.35811 5.79855C3.35811 5.98158 3.39478 6.16275 3.46596 6.33137C3.53715 6.49998 3.64139 6.65263 3.77255 6.78029C3.9037 6.90795 4.05911 7.00803 4.22959 7.07463C4.40006 7.14123 4.58216 7.173 4.76512 7.16805C5.12193 7.15841 5.46088 7.0099 5.70984 6.75412C5.9588 6.49834 6.09811 6.15549 6.09811 5.79855C6.09811 5.44162 5.9588 5.09877 5.70984 4.84299C5.46088 4.58721 5.12193 4.4387 4.76512 4.42905ZM12.0001 9.59705C11.2881 9.59705 10.6501 9.90506 10.2091 10.3981C9.82812 10.8241 9.59712 11.3841 9.59712 12.0001C9.59712 12.7121 9.90512 13.3501 10.3981 13.7911C10.8241 14.1721 11.3841 14.4031 12.0001 14.4031C12.7121 14.4031 13.3501 14.0951 13.7911 13.6021C14.1721 13.1761 14.4031 12.6161 14.4031 12.0001C14.4031 11.3841 14.1731 10.8241 13.7911 10.3981C13.566 10.1457 13.29 9.94389 12.9814 9.80583C12.6727 9.66778 12.3383 9.59663 12.0001 9.59705ZM19.2351 16.8321C19.0523 16.827 18.8703 16.8586 18.6999 16.925C18.5295 16.9914 18.3741 17.0913 18.243 17.2188C18.1118 17.3463 18.0076 17.4987 17.9363 17.6672C17.865 17.8356 17.8283 18.0166 17.8281 18.1995C17.828 18.3824 17.8645 18.5635 17.9355 18.732C18.0065 18.9006 18.1106 19.0532 18.2416 19.1809C18.3725 19.3085 18.5277 19.4086 18.698 19.4753C18.8683 19.542 19.0503 19.5739 19.2331 19.5691C19.5897 19.5597 19.9285 19.4115 20.1775 19.1561C20.4264 18.9007 20.5659 18.5582 20.5661 18.2015C20.5664 17.8449 20.4274 17.5022 20.1788 17.2464C19.9303 16.9906 19.5917 16.842 19.2351 16.8321ZM4.76512 17.8661C4.58216 17.8611 4.40006 17.8929 4.22959 17.9595C4.05911 18.0261 3.9037 18.1262 3.77255 18.2538C3.64139 18.3815 3.53715 18.5341 3.46596 18.7027C3.39478 18.8714 3.35811 19.0525 3.35811 19.2356C3.35811 19.4186 3.39478 19.5998 3.46596 19.7684C3.53715 19.937 3.64139 20.0896 3.77255 20.2173C3.9037 20.345 4.05911 20.445 4.22959 20.5116C4.40006 20.5782 4.58216 20.61 4.76512 20.6051C5.12847 20.6051 5.47693 20.4607 5.73386 20.2038C5.99078 19.9469 6.13512 19.5984 6.13512 19.2351C6.13512 18.8717 5.99078 18.5232 5.73386 18.2663C5.47693 18.0094 5.12847 17.8651 4.76512 17.8651V17.8661Z" fill="#353535" stroke="white" stroke-width="0.4"/>
<path d="M10.2097 10.3987C10.6507 9.90566 11.2887 9.59766 12.0007 9.59766C12.3388 9.59723 12.6732 9.66838 12.9819 9.80644C13.2906 9.94449 13.5666 10.1463 13.7917 10.3987C14.1737 10.8247 14.4037 11.3847 14.4037 12.0007C14.4037 12.6167 14.1727 13.1767 13.7917 13.6027C13.3507 14.0957 12.7127 14.4037 12.0007 14.4037C11.3847 14.4037 10.8247 14.1727 10.3987 13.7917C9.90566 13.3507 9.59766 12.7127 9.59766 12.0007C9.59766 11.3847 9.82866 10.8247 10.2097 10.3987Z" fill="#42E9AF"/>
<path d="M18.6999 16.9255C18.8703 16.8591 19.0523 16.8275 19.2351 16.8326C19.5916 16.8425 19.9302 16.9911 20.1788 17.2469C20.4274 17.5027 20.5664 17.8454 20.5661 18.202C20.5659 18.5587 20.4264 18.9012 20.1774 19.1566C19.9285 19.412 19.5897 19.5602 19.2331 19.5696C19.0503 19.5744 18.8683 19.5425 18.698 19.4758C18.5277 19.4091 18.3725 19.309 18.2415 19.1814C18.1106 19.0537 18.0065 18.9011 17.9355 18.7325C17.8645 18.564 17.828 18.3829 17.8281 18.2C17.8283 18.0171 17.865 17.8361 17.9363 17.6677C18.0075 17.4992 18.1118 17.3468 18.243 17.2193C18.3741 17.0918 18.5295 16.9919 18.6999 16.9255Z" fill="#42E9AF"/>
<path d="M4.23085 17.9597C4.40133 17.8931 4.58343 17.8613 4.76638 17.8662V17.8652C5.12973 17.8652 5.4782 18.0096 5.73512 18.2665C5.99205 18.5234 6.13638 18.8719 6.13638 19.2352C6.13638 19.5986 5.99205 19.947 5.73512 20.204C5.4782 20.4609 5.12973 20.6052 4.76638 20.6052C4.58343 20.6102 4.40133 20.5784 4.23085 20.5118C4.06037 20.4452 3.90497 20.3451 3.77381 20.2175C3.64266 20.0898 3.53841 19.9372 3.46723 19.7685C3.39605 19.5999 3.35938 19.4188 3.35938 19.2357C3.35938 19.0527 3.39605 18.8715 3.46723 18.7029C3.53841 18.5343 3.64266 18.3817 3.77381 18.254C3.90497 18.1263 4.06037 18.0263 4.23085 17.9597Z" fill="#42E9AF"/>
<path d="M18.2645 3.7958C18.5215 3.53887 18.8699 3.39453 19.2333 3.39453C19.5966 3.39453 19.9451 3.53887 20.202 3.7958C20.4589 4.05272 20.6033 4.40119 20.6033 4.76453C20.6033 5.12788 20.4589 5.47634 20.202 5.73327C19.9451 5.99019 19.5966 6.13453 19.2333 6.13453C18.8699 6.13453 18.5215 5.99019 18.2645 5.73327C18.0076 5.47634 17.8633 5.12788 17.8633 4.76453C17.8633 4.40119 18.0076 4.05272 18.2645 3.7958Z" fill="#42E9AF"/>
<path d="M4.23085 4.52166C4.40133 4.45506 4.58343 4.42329 4.76638 4.42823C5.12319 4.43788 5.46215 4.58639 5.71111 4.84217C5.96007 5.09795 6.09937 5.4408 6.09937 5.79773C6.09937 6.15467 5.96007 6.49752 5.71111 6.7533C5.46215 7.00908 5.12319 7.15759 4.76638 7.16724C4.58343 7.17218 4.40133 7.14041 4.23085 7.07381C4.06037 7.00721 3.90497 6.90713 3.77381 6.77947C3.64266 6.65181 3.53841 6.49917 3.46723 6.33055C3.39605 6.16193 3.35938 5.98076 3.35938 5.79773C3.35938 5.61471 3.39605 5.43354 3.46723 5.26492C3.53841 5.0963 3.64266 4.94366 3.77381 4.816C3.90497 4.68834 4.06037 4.58826 4.23085 4.52166Z" fill="#42E9AF"/>
</svg>
