<svg width="1600" height="80" viewBox="0 0 1600 80" fill="none" xmlns="http://www.w3.org/2000/svg">
<rect width="1600" height="80" fill="white"/>
<rect x="1132" width="48" height="3" fill="black"/>
<path d="M1131.57 73.216C1134 73.216 1135.48 71.956 1136.4 70.516L1134.6 69.598C1134.02 70.606 1132.87 71.344 1131.57 71.344C1129.2 71.344 1127.43 69.526 1127.43 67.006C1127.43 64.486 1129.2 62.668 1131.57 62.668C1132.87 62.668 1134.02 63.424 1134.6 64.414L1136.4 63.496C1135.5 62.056 1134 60.796 1131.57 60.796C1128.03 60.796 1125.27 63.316 1125.27 67.006C1125.27 70.696 1128.03 73.216 1131.57 73.216ZM1145.23 73V67.24C1145.23 64.9 1143.54 64.09 1141.61 64.09C1140.22 64.09 1138.96 64.54 1137.96 65.494L1138.73 66.808C1139.49 66.07 1140.33 65.71 1141.3 65.71C1142.51 65.71 1143.34 66.322 1143.34 67.33V68.626C1142.71 67.888 1141.7 67.51 1140.53 67.51C1139.11 67.51 1137.51 68.338 1137.51 70.336C1137.51 72.262 1139.11 73.216 1140.53 73.216C1141.68 73.216 1142.69 72.802 1143.34 72.064V73H1145.23ZM1141.27 71.92C1140.21 71.92 1139.41 71.308 1139.41 70.372C1139.41 69.418 1140.21 68.806 1141.27 68.806C1142.1 68.806 1142.91 69.112 1143.34 69.706V71.02C1142.91 71.614 1142.1 71.92 1141.27 71.92ZM1149.57 73V67.078C1149.95 66.466 1151.01 65.926 1151.8 65.926C1152.04 65.926 1152.23 65.944 1152.4 65.98V64.108C1151.26 64.108 1150.22 64.756 1149.57 65.584V64.306H1147.68V73H1149.57ZM1157.93 73.216C1159.32 73.216 1160.6 72.784 1161.46 71.956L1160.6 70.714C1159.99 71.326 1158.98 71.668 1158.13 71.668C1156.49 71.668 1155.5 70.588 1155.36 69.274H1162.07V68.824C1162.07 66.088 1160.4 64.09 1157.79 64.09C1155.22 64.09 1153.38 66.124 1153.38 68.644C1153.38 71.398 1155.32 73.216 1157.93 73.216ZM1160.24 67.942H1155.34C1155.43 66.88 1156.17 65.638 1157.79 65.638C1159.5 65.638 1160.2 66.916 1160.24 67.942ZM1167.95 73.216C1169.34 73.216 1170.62 72.784 1171.48 71.956L1170.62 70.714C1170 71.326 1169 71.668 1168.15 71.668C1166.51 71.668 1165.52 70.588 1165.38 69.274H1172.09V68.824C1172.09 66.088 1170.42 64.09 1167.81 64.09C1165.23 64.09 1163.4 66.124 1163.4 68.644C1163.4 71.398 1165.34 73.216 1167.95 73.216ZM1170.26 67.942H1165.36C1165.45 66.88 1166.19 65.638 1167.81 65.638C1169.52 65.638 1170.22 66.916 1170.26 67.942ZM1175.85 73V67.078C1176.23 66.466 1177.29 65.926 1178.08 65.926C1178.31 65.926 1178.51 65.944 1178.67 65.98V64.108C1177.54 64.108 1176.5 64.756 1175.85 65.584V64.306H1173.96V73H1175.85ZM1183.17 73.216C1185.51 73.216 1186.79 72.046 1186.79 70.516C1186.79 67.06 1181.53 68.212 1181.53 66.664C1181.53 66.052 1182.16 65.602 1183.15 65.602C1184.23 65.602 1185.2 66.052 1185.72 66.646L1186.52 65.314C1185.72 64.612 1184.61 64.09 1183.13 64.09C1180.94 64.09 1179.71 65.314 1179.71 66.736C1179.71 70.066 1184.97 68.842 1184.97 70.552C1184.97 71.236 1184.39 71.722 1183.26 71.722C1182.12 71.722 1180.92 71.128 1180.31 70.498L1179.44 71.866C1180.34 72.748 1181.69 73.216 1183.17 73.216Z" fill="black"/>
<path opacity="0.8" d="M799.575 45L802.995 32.994H801.339L798.693 43.002L795.939 32.994H794.697L791.943 43.002L789.279 32.994H787.623L791.043 45H792.663L795.309 35.316L797.955 45H799.575ZM811.848 45V38.862C811.848 36.972 810.894 36.09 809.076 36.09C807.762 36.09 806.574 36.846 805.962 37.566V32.994H804.612V45H805.962V38.646C806.484 37.944 807.492 37.296 808.536 37.296C809.706 37.296 810.498 37.746 810.498 39.276V45H811.848ZM814.057 48.402C814.309 48.474 814.759 48.528 815.047 48.528C816.199 48.51 817.081 48.024 817.603 46.764L821.959 36.306H820.483L817.603 43.434L814.705 36.306H813.247L816.883 45.09L816.307 46.404C816.001 47.124 815.605 47.322 815.011 47.322C814.795 47.322 814.471 47.268 814.273 47.178L814.057 48.402ZM832.958 45.216C836.216 45.216 837.854 43.308 837.854 40.32V32.994H836.36V40.302C836.36 42.498 835.172 43.884 832.958 43.884C830.744 43.884 829.556 42.498 829.556 40.302V32.994H828.062V40.338C828.062 43.29 829.7 45.216 832.958 45.216ZM843.366 45.216C845.616 45.216 846.786 44.046 846.786 42.588C846.786 39.204 841.404 40.464 841.404 38.556C841.404 37.782 842.142 37.188 843.33 37.188C844.446 37.188 845.4 37.656 845.922 38.286L846.552 37.35C845.85 36.648 844.806 36.09 843.33 36.09C841.26 36.09 840.09 37.242 840.09 38.592C840.09 41.814 845.472 40.518 845.472 42.624C845.472 43.488 844.752 44.118 843.42 44.118C842.232 44.118 841.134 43.542 840.558 42.876L839.856 43.848C840.738 44.784 841.944 45.216 843.366 45.216Z" fill="black"/>
<path opacity="0.8" d="M977.828 19L972.986 6.994H971.132L966.308 19H968.018L969.08 16.336H975.056L976.118 19H977.828ZM974.606 15.004H969.512L972.068 8.542L974.606 15.004ZM980.694 16.642V12.7C981.162 11.944 982.224 11.296 983.286 11.296C985.05 11.296 986.094 12.736 986.094 14.662C986.094 16.588 985.05 18.01 983.286 18.01C982.224 18.01 981.162 17.398 980.694 16.642ZM980.694 19V17.704C981.342 18.586 982.404 19.216 983.628 19.216C985.896 19.216 987.498 17.488 987.498 14.662C987.498 11.89 985.896 10.09 983.628 10.09C982.44 10.09 981.396 10.666 980.694 11.62V6.994H979.344V19H980.694ZM993.496 19.216C996.142 19.216 997.798 17.164 997.798 14.644C997.798 12.124 996.142 10.09 993.496 10.09C990.85 10.09 989.194 12.124 989.194 14.644C989.194 17.164 990.85 19.216 993.496 19.216ZM993.496 18.01C991.642 18.01 990.598 16.426 990.598 14.644C990.598 12.88 991.642 11.296 993.496 11.296C995.35 11.296 996.376 12.88 996.376 14.644C996.376 16.426 995.35 18.01 993.496 18.01ZM1007.22 19V10.306H1005.87V16.696C1005.36 17.398 1004.35 18.01 1003.29 18.01C1002.12 18.01 1001.35 17.56 1001.35 16.03V10.306H999.998V16.444C999.998 18.334 1000.95 19.216 1002.77 19.216C1004.07 19.216 1005.2 18.532 1005.87 17.776V19H1007.22ZM1012.11 19.216C1012.9 19.216 1013.39 18.982 1013.73 18.658L1013.33 17.65C1013.15 17.848 1012.79 18.01 1012.41 18.01C1011.82 18.01 1011.53 17.542 1011.53 16.894V11.494H1013.3V10.306H1011.53V7.93H1010.18V10.306H1008.74V11.494H1010.18V17.182C1010.18 18.478 1010.83 19.216 1012.11 19.216Z" fill="black"/>
<path opacity="0.8" d="M601.292 45.216C604.532 45.216 605.72 43.434 605.72 41.688C605.72 37.206 598.61 38.754 598.61 36.054C598.61 34.92 599.636 34.146 601.076 34.146C602.39 34.146 603.65 34.596 604.55 35.586L605.45 34.488C604.442 33.426 603.02 32.814 601.184 32.814C598.826 32.814 597.062 34.164 597.062 36.144C597.062 40.428 604.172 38.718 604.172 41.814C604.172 42.732 603.488 43.884 601.346 43.884C599.654 43.884 598.358 43.056 597.566 42.174L596.684 43.308C597.674 44.424 599.204 45.216 601.292 45.216ZM611.821 45.216C613.243 45.216 614.413 44.748 615.277 43.884L614.629 43.002C613.945 43.704 612.937 44.1 611.947 44.1C610.075 44.1 608.923 42.732 608.815 41.094H615.853V40.752C615.853 38.142 614.305 36.09 611.677 36.09C609.193 36.09 607.393 38.124 607.393 40.644C607.393 43.362 609.247 45.216 611.821 45.216ZM614.521 40.104H608.815C608.887 38.772 609.805 37.206 611.659 37.206C613.639 37.206 614.503 38.808 614.521 40.104ZM619.389 45V38.844C619.785 38.142 620.919 37.458 621.747 37.458C621.963 37.458 622.125 37.476 622.287 37.512V36.126C621.099 36.126 620.091 36.792 619.389 37.71V36.306H618.039V45H619.389ZM627.779 45L631.397 36.306H629.921L627.041 43.434L624.143 36.306H622.685L626.303 45H627.779ZM633.471 35.064C633.975 35.064 634.389 34.668 634.389 34.164C634.389 33.66 633.975 33.246 633.471 33.246C632.985 33.246 632.571 33.66 632.571 34.164C632.571 34.668 632.985 35.064 633.471 35.064ZM634.155 45V36.306H632.805V45H634.155ZM640.682 45.216C642.266 45.216 643.202 44.568 643.868 43.704L642.968 42.876C642.392 43.65 641.654 44.01 640.754 44.01C638.9 44.01 637.748 42.57 637.748 40.644C637.748 38.718 638.9 37.296 640.754 37.296C641.654 37.296 642.392 37.638 642.968 38.43L643.868 37.602C643.202 36.738 642.266 36.09 640.682 36.09C638.09 36.09 636.344 38.07 636.344 40.644C636.344 43.236 638.09 45.216 640.682 45.216ZM649.684 45.216C651.106 45.216 652.276 44.748 653.14 43.884L652.492 43.002C651.808 43.704 650.8 44.1 649.81 44.1C647.938 44.1 646.786 42.732 646.678 41.094H653.716V40.752C653.716 38.142 652.168 36.09 649.54 36.09C647.056 36.09 645.256 38.124 645.256 40.644C645.256 43.362 647.11 45.216 649.684 45.216ZM652.384 40.104H646.678C646.75 38.772 647.668 37.206 649.522 37.206C651.502 37.206 652.366 38.808 652.384 40.104ZM658.657 45.216C660.907 45.216 662.077 44.046 662.077 42.588C662.077 39.204 656.695 40.464 656.695 38.556C656.695 37.782 657.433 37.188 658.621 37.188C659.737 37.188 660.691 37.656 661.213 38.286L661.843 37.35C661.141 36.648 660.097 36.09 658.621 36.09C656.551 36.09 655.381 37.242 655.381 38.592C655.381 41.814 660.763 40.518 660.763 42.624C660.763 43.488 660.043 44.118 658.711 44.118C657.523 44.118 656.425 43.542 655.849 42.876L655.147 43.848C656.029 44.784 657.235 45.216 658.657 45.216Z" fill="black"/>
<path d="M681.313 37.6569C682.204 37.6569 682.65 38.734 682.02 39.364L678.777 42.6066C678.387 42.9971 677.754 42.9971 677.363 42.6066L674.121 39.364C673.491 38.734 673.937 37.6569 674.828 37.6569L681.313 37.6569Z" fill="#676767"/>
<rect x="1309" y="26" width="90" height="28" rx="14" stroke="black"/>
<path d="M1340.79 46V44.668H1335.21V33.994H1333.71V46H1340.79ZM1346.25 46.216C1348.89 46.216 1350.55 44.164 1350.55 41.644C1350.55 39.124 1348.89 37.09 1346.25 37.09C1343.6 37.09 1341.94 39.124 1341.94 41.644C1341.94 44.164 1343.6 46.216 1346.25 46.216ZM1346.25 45.01C1344.39 45.01 1343.35 43.426 1343.35 41.644C1343.35 39.88 1344.39 38.296 1346.25 38.296C1348.1 38.296 1349.13 39.88 1349.13 41.644C1349.13 43.426 1348.1 45.01 1346.25 45.01ZM1356.24 49.528C1358.36 49.528 1360.38 48.628 1360.38 45.748V37.306H1359.03V38.62C1358.33 37.666 1357.28 37.09 1356.11 37.09C1353.83 37.09 1352.24 38.818 1352.24 41.608C1352.24 44.416 1353.85 46.108 1356.11 46.108C1357.34 46.108 1358.4 45.442 1359.03 44.56V45.802C1359.03 47.71 1357.68 48.412 1356.24 48.412C1355 48.412 1354.13 48.088 1353.41 47.224L1352.73 48.232C1353.76 49.24 1354.76 49.528 1356.24 49.528ZM1356.44 44.92C1354.69 44.92 1353.65 43.516 1353.65 41.608C1353.65 39.682 1354.69 38.296 1356.44 38.296C1357.52 38.296 1358.56 38.944 1359.03 39.7V43.498C1358.56 44.254 1357.52 44.92 1356.44 44.92ZM1363.75 36.064C1364.25 36.064 1364.67 35.668 1364.67 35.164C1364.67 34.66 1364.25 34.246 1363.75 34.246C1363.26 34.246 1362.85 34.66 1362.85 35.164C1362.85 35.668 1363.26 36.064 1363.75 36.064ZM1364.43 46V37.306H1363.08V46H1364.43ZM1374.35 46V39.898C1374.35 38.008 1373.39 37.09 1371.57 37.09C1370.28 37.09 1369.09 37.846 1368.48 38.566V37.306H1367.13V46H1368.48V39.646C1368.98 38.944 1369.99 38.296 1371.05 38.296C1372.22 38.296 1373 38.782 1373 40.312V46H1374.35Z" fill="black"/>
<path fill-rule="evenodd" clip-rule="evenodd" d="M216.798 20.9529L216.191 20.6016L215.584 20.9529L199.807 30.0925L199.203 30.4421V31.1396V49.4187V50.1162L199.807 50.4659L215.584 59.6054L216.191 59.9567L216.798 59.6054L232.575 50.4659L233.179 50.1162V49.4187V31.1396V30.4421L232.575 30.0925L216.798 20.9529ZM201.624 48.2148V33.8415L213.658 44.9598L201.624 48.2148ZM216.292 45.7499L222.802 53.3304L230.759 48.7211V41.8373L216.292 45.7499ZM221.525 54.0699L214.741 46.1695L202.796 49.4002L216.191 57.1596L221.525 54.0699ZM202.005 32.2197L214.93 44.1598L224.867 28.579L202.005 32.2197ZM223.088 27.3937L216.191 23.3987L204.065 30.4232L223.088 27.3937ZM216.657 44.1489L226.195 29.1936L230.759 31.8372V40.3349L216.657 44.1489Z" fill="black"/>
<path d="M243.392 44.2955C243.549 44.6458 243.777 44.9596 244.062 45.217C244.348 45.4744 244.683 45.6698 245.047 45.7908C245.432 45.9352 245.84 46.0071 246.25 46.0028C246.685 46.0091 247.116 45.9194 247.512 45.7402C247.908 45.5609 248.26 45.2965 248.542 44.9658C248.819 44.6436 249.032 44.2725 249.172 43.8715C249.316 43.4511 249.388 43.0095 249.384 42.5653C249.388 42.1222 249.307 41.6826 249.144 41.2705C248.99 40.8874 248.765 40.5373 248.479 40.2393C248.19 39.9409 247.843 39.7049 247.459 39.5461C247.049 39.3757 246.609 39.29 246.165 39.294C245.609 39.2908 245.06 39.4225 244.566 39.6778C244.062 39.9387 243.635 40.328 243.329 40.8065H242.355L243.581 34.281H249.883V35.3237H244.383L243.581 39.4888L243.615 39.5289C243.935 39.1495 244.342 38.8528 244.801 38.6638C245.266 38.4597 245.766 38.3506 246.273 38.3429C246.873 38.335 247.469 38.444 248.026 38.6638C248.529 38.8672 248.984 39.1736 249.361 39.5632C249.732 39.9598 250.019 40.4276 250.204 40.9382C250.408 41.4998 250.509 42.0937 250.501 42.6913C250.515 43.2682 250.408 43.8416 250.188 44.3751C249.968 44.9086 249.64 45.3906 249.224 45.7908C248.821 46.1724 248.349 46.4721 247.832 46.6731C247.284 46.8852 246.701 46.9921 246.113 46.9882C245.56 46.9943 245.009 46.9052 244.486 46.7246C244.007 46.5637 243.567 46.3063 243.191 45.9684C242.82 45.6306 242.523 45.2188 242.32 44.7595C242.099 44.2475 241.982 43.6962 241.977 43.1382H243.122C243.133 43.5382 243.224 43.932 243.392 44.2955Z" fill="#030000" stroke="#030000" stroke-width="0.103124" stroke-miterlimit="10"/>
<path d="M260.712 34.281V35.3237C260.316 35.7305 259.846 36.2805 259.291 36.968C258.688 37.7426 258.151 38.5667 257.687 39.4315C257.129 40.4708 256.671 41.5603 256.317 42.6856C255.915 43.987 255.682 45.3349 255.624 46.696H254.404C254.466 45.679 254.614 44.6691 254.845 43.6767C255.067 42.7207 255.386 41.7897 255.796 40.8981C256.234 39.9471 256.751 39.0349 257.343 38.1711C258.029 37.1707 258.778 36.2141 259.583 35.3065H252.622V34.281H260.712Z" fill="#030000" stroke="#030000" stroke-width="0.103124" stroke-miterlimit="10"/>
<path d="M268.783 33.8687C269.307 33.8668 269.829 33.9186 270.342 34.0234C270.808 34.113 271.253 34.2899 271.654 34.5447C272.026 34.7894 272.333 35.1219 272.547 35.513C272.93 36.2841 272.996 37.1746 272.731 37.9937C272.626 38.3048 272.471 38.597 272.272 38.8588C272.075 39.1153 271.837 39.3379 271.568 39.5176C271.293 39.6992 270.986 39.8256 270.663 39.89V39.9301C271.426 40.0069 272.132 40.3691 272.639 40.9441C273.139 41.5326 273.403 42.2862 273.378 43.0582C273.377 43.2904 273.357 43.5221 273.321 43.7514C273.284 44.0228 273.213 44.2885 273.109 44.542C272.99 44.8282 272.832 45.0963 272.639 45.3384C272.416 45.6225 272.137 45.8584 271.82 46.0316C271.426 46.2518 271.004 46.4157 270.565 46.5186C269.977 46.6545 269.375 46.718 268.772 46.7076H263.381V33.8687H268.783ZM268.783 39.4947C269.215 39.5047 269.646 39.4487 270.061 39.3285C270.389 39.232 270.694 39.0724 270.96 38.8588C271.19 38.6717 271.375 38.4346 271.499 38.1655C271.62 37.9014 271.683 37.614 271.682 37.3234C271.682 35.7116 270.716 34.9076 268.783 34.9114H264.578V39.4947H268.783ZM268.783 45.6649C269.218 45.6671 269.652 45.6268 270.078 45.5446C270.463 45.4768 270.831 45.3348 271.161 45.1264C271.472 44.9211 271.725 44.6389 271.894 44.3071C272.088 43.9079 272.18 43.4672 272.164 43.0238C272.188 42.6651 272.121 42.3059 271.969 41.9802C271.817 41.6545 271.584 41.3729 271.293 41.1619C270.54 40.7006 269.664 40.4826 268.783 40.5374H264.578V45.6936L268.783 45.6649Z" fill="#030000" stroke="#030000" stroke-width="0.103124" stroke-miterlimit="10"/>
<path d="M276.929 33.8687V45.6649H284.119V46.7076H275.709V33.8687H276.929Z" fill="#030000" stroke="#030000" stroke-width="0.103124" stroke-miterlimit="10"/>
<path d="M285.415 37.7699C285.657 36.9927 286.046 36.2691 286.561 35.6387C287.075 35.0129 287.723 34.5098 288.457 34.1663C289.286 33.7768 290.193 33.5808 291.11 33.5934C292.022 33.5802 292.926 33.7762 293.751 34.1663C294.482 34.5115 295.127 35.0144 295.641 35.6387C296.159 36.2675 296.548 36.9915 296.787 37.7699C297.291 39.4224 297.291 41.1877 296.787 42.8402C296.55 43.6161 296.161 44.3368 295.641 44.9599C295.126 45.581 294.48 46.0816 293.751 46.4266C292.926 46.8168 292.022 47.0127 291.11 46.9995C290.193 47.0121 289.286 46.8162 288.457 46.4266C287.725 46.0831 287.077 45.5823 286.561 44.9599C286.043 44.3353 285.654 43.615 285.415 42.8402C284.911 41.1877 284.911 39.4224 285.415 37.7699ZM286.561 42.3532C286.737 43.0058 287.03 43.6211 287.426 44.1693C287.82 44.7077 288.334 45.147 288.927 45.4526C289.606 45.7946 290.361 45.9619 291.121 45.9396C291.878 45.9622 292.628 45.7948 293.304 45.4526C293.894 45.1454 294.406 44.7063 294.799 44.1693C295.187 43.6204 295.471 43.0048 295.636 42.3532C296.01 41.0037 296.01 39.5778 295.636 38.2282C295.464 37.5768 295.172 36.963 294.776 36.4179C294.383 35.8809 293.871 35.4417 293.281 35.1345C292.605 34.7924 291.855 34.625 291.098 34.6476C290.338 34.6252 289.584 34.7926 288.904 35.1345C288.311 35.4401 287.797 35.8795 287.403 36.4179C287.007 36.964 286.714 37.5774 286.538 38.2282C286.171 39.5788 286.171 41.0027 286.538 42.3532H286.561Z" fill="#030000" stroke="#030000" stroke-width="0.103124" stroke-miterlimit="10"/>
<path d="M308.258 36.4293C308.019 36.0599 307.714 35.7375 307.358 35.4783C307.012 35.2154 306.625 35.0121 306.212 34.8767C305.781 34.7382 305.33 34.6686 304.877 34.6705C304.117 34.6482 303.363 34.8155 302.683 35.1575C302.09 35.4631 301.576 35.9024 301.182 36.4408C300.787 36.9869 300.494 37.6003 300.317 38.2512C299.943 39.6007 299.943 41.0266 300.317 42.3761C300.493 43.0287 300.787 43.644 301.182 44.1922C301.576 44.7306 302.09 45.17 302.683 45.4756C303.363 45.8175 304.117 45.9849 304.877 45.9625C305.433 45.9707 305.984 45.8593 306.493 45.636C306.963 45.4315 307.386 45.1332 307.736 44.7594C308.088 44.3743 308.373 43.9328 308.578 43.4532C308.8 42.9417 308.939 42.3983 308.991 41.8433H310.217C310.143 42.5838 309.95 43.3075 309.644 43.986C309.379 44.5899 309.002 45.138 308.533 45.6016C308.069 46.0393 307.521 46.3785 306.923 46.5985C306.266 46.8458 305.568 46.9682 304.866 46.9594C303.95 46.972 303.043 46.7761 302.213 46.3865C301.481 46.043 300.834 45.5422 300.317 44.9198C299.8 44.2952 299.411 43.5749 299.171 42.8001C298.667 41.1476 298.667 39.3823 299.171 37.7298C299.413 36.9526 299.802 36.229 300.317 35.5986C300.832 34.9728 301.48 34.4697 302.213 34.1262C303.043 33.7367 303.95 33.5407 304.866 33.5533C305.472 33.5541 306.074 33.6448 306.653 33.8226C307.222 33.9988 307.757 34.27 308.235 34.6246C308.71 34.9775 309.113 35.4191 309.421 35.9252C309.74 36.4698 309.936 37.0781 309.993 37.7069H308.773C308.674 37.2551 308.5 36.8232 308.258 36.4293Z" fill="#030000" stroke="#030000" stroke-width="0.103124" stroke-miterlimit="10"/>
<path d="M313.643 33.8687V40.7722L321.09 33.8973H322.74L317.011 39.2024L323.027 46.7076H321.446L316.089 40.016L313.625 42.3076V46.7076H312.422V33.8687H313.643Z" fill="#030000" stroke="#030000" stroke-width="0.103124" stroke-miterlimit="10"/>
<path d="M325.312 44.1351C325.507 44.568 325.813 44.9416 326.2 45.2179C326.606 45.4957 327.064 45.6904 327.546 45.7908C328.09 45.9084 328.645 45.9661 329.202 45.9626C329.571 45.9591 329.938 45.911 330.296 45.8194C330.686 45.7242 331.059 45.5696 331.402 45.3611C331.739 45.1537 332.03 44.8786 332.255 44.5533C332.491 44.1991 332.611 43.7809 332.599 43.3559C332.607 43.0283 332.524 42.7048 332.358 42.422C332.196 42.1597 331.982 41.9335 331.728 41.7575C331.464 41.5734 331.177 41.4251 330.875 41.3163C330.574 41.2069 330.268 41.1132 329.958 41.0356L327.093 40.3367C326.723 40.2406 326.359 40.12 326.005 39.9757C325.664 39.8418 325.349 39.6477 325.077 39.4028C324.807 39.1569 324.591 38.8587 324.441 38.5263C324.265 38.124 324.181 37.6875 324.194 37.2487C324.205 36.8754 324.267 36.5053 324.378 36.1487C324.502 35.6881 324.732 35.2626 325.048 34.9055C325.43 34.5092 325.891 34.197 326.4 33.9888C327.102 33.7066 327.855 33.574 328.612 33.5992C329.226 33.5971 329.837 33.6819 330.428 33.8513C330.976 34.0024 331.49 34.2593 331.94 34.6075C332.395 34.9585 332.76 35.4116 333.007 35.9302C333.254 36.4488 333.375 37.0182 333.361 37.5924H332.129C332.119 37.143 332.005 36.702 331.797 36.3034C331.607 35.9467 331.343 35.6343 331.024 35.3867C330.697 35.1295 330.326 34.9352 329.929 34.8138C329.506 34.6861 329.065 34.6224 328.623 34.6247C328.216 34.6235 327.81 34.6697 327.414 34.7622C327.048 34.838 326.7 34.9839 326.389 35.1919C326.091 35.3891 325.847 35.6568 325.678 35.9711C325.486 36.3441 325.393 36.7605 325.409 37.1799C325.403 37.4472 325.454 37.7127 325.558 37.9591C325.657 38.1782 325.801 38.3736 325.982 38.532C326.168 38.6883 326.377 38.8158 326.601 38.9101C326.844 39.008 327.095 39.0866 327.351 39.145L330.479 39.9184C330.918 40.0317 331.347 40.1792 331.763 40.3596C332.146 40.5212 332.503 40.7394 332.822 41.007C333.128 41.2645 333.374 41.585 333.544 41.9465C333.727 42.3733 333.815 42.8346 333.802 43.2986C333.8 43.4904 333.785 43.6819 333.756 43.8715C333.722 44.136 333.65 44.3944 333.544 44.6392C333.417 44.93 333.254 45.2034 333.057 45.4527C332.818 45.7539 332.524 46.0084 332.192 46.2033C331.768 46.4482 331.311 46.6297 330.834 46.7418C329.5 47.0352 328.115 47.0156 326.79 46.6845C326.191 46.5345 325.63 46.2634 325.14 45.8882C324.688 45.5215 324.334 45.0492 324.108 44.5132C323.851 43.8679 323.743 43.1724 323.793 42.4793H325.019C324.982 43.0467 325.082 43.6148 325.312 44.1351Z" fill="#030000" stroke="#030000" stroke-width="0.103124" stroke-miterlimit="10"/>
</svg>
