<svg width="82" height="64" viewBox="0 0 82 64" fill="none" xmlns="http://www.w3.org/2000/svg">
<circle opacity="0.15" cx="58.5713" cy="35.9793" r="22.5918" fill="url(#paint0_linear_94_561)"/>
<path d="M24.3594 43.0919V43.2592H24.5268H58.31H58.4773V43.0919V15.2704V15.1031H58.31H24.5268H24.3594V15.2704V43.0919ZM59.3036 44.9118H23.5332C23.0768 44.9118 22.7069 44.5418 22.7069 44.0855V14.2768C22.7069 13.8205 23.0768 13.4506 23.5332 13.4506H59.3036C59.7598 13.4506 60.1299 13.8205 60.1299 14.2768V44.0855C60.1299 44.5418 59.7598 44.9118 59.3036 44.9118Z" fill="black" stroke="white" stroke-width="0.334694"/>
<path opacity="0.3" d="M28.5012 40.1109H54.3354C54.8841 40.1109 55.329 39.666 55.329 39.1173V19.2448C55.329 18.6961 54.8841 18.2512 54.3354 18.2512H28.5012C27.9524 18.2512 27.5076 18.6961 27.5076 19.2448V39.1173C27.5076 39.666 27.9524 40.1109 28.5012 40.1109Z" fill="#3CDFF5"/>
<path d="M29.3275 38.1237V38.291H29.4948H53.3418H53.5091V38.1237V20.2385V20.0711H53.3418H29.4948H29.3275V20.2385V38.1237ZM54.3354 39.9436H28.5012C28.0448 39.9436 27.6749 39.5736 27.6749 39.1173V19.2448C27.6749 18.7885 28.0448 18.4186 28.5012 18.4186H54.3354C54.7916 18.4186 55.1616 18.7885 55.1616 19.2448V39.1173C55.1616 39.5735 54.7916 39.9436 54.3354 39.9436Z" fill="black" stroke="white" stroke-width="0.334694"/>
<path d="M19.559 44.9122H19.389L19.3917 45.0822C19.4288 47.371 21.3017 49.2214 23.5992 49.2214H59.2372C61.5346 49.2214 63.4077 47.371 63.4446 45.0822L63.4474 44.9122H63.2773H19.559ZM59.2372 50.8739H23.5992C20.3679 50.8739 17.7386 48.2447 17.7386 45.0133V44.0859C17.7386 43.6296 18.1086 43.2596 18.5649 43.2596H64.2715C64.7278 43.2596 65.0978 43.6297 65.0978 44.0859V45.0133C65.0978 48.2447 62.4686 50.8739 59.2372 50.8739Z" fill="black" stroke="white" stroke-width="0.334694"/>
<path fill-rule="evenodd" clip-rule="evenodd" d="M43.925 26.3529C44.1537 26.1242 44.1537 25.7533 43.925 25.5246C43.6963 25.2958 43.3254 25.2958 43.0967 25.5246L38.913 29.7083C38.6843 29.937 38.6843 30.3078 38.913 30.5366C39.1417 30.7653 39.5126 30.7653 39.7413 30.5366L43.925 26.3529ZM44.7617 30.5366C44.9905 30.3078 44.9905 29.937 44.7617 29.7083C44.533 29.4795 44.1622 29.4795 43.9334 29.7083L39.7497 33.8919C39.521 34.1207 39.521 34.4915 39.7497 34.7203C39.9785 34.949 40.3493 34.949 40.5781 34.7203L44.7617 30.5366Z" fill="black"/>
<path d="M33.4694 24.0457H33.3021V24.2131V27.1939C33.3021 27.6503 32.9322 28.0202 32.4758 28.0202C32.0194 28.0202 31.6495 27.6503 31.6495 27.1939V23.2195C31.6495 22.7631 32.0194 22.3932 32.4758 22.3932H36.4503C36.9066 22.3932 37.2766 22.7631 37.2766 23.2195C37.2766 23.6758 36.9066 24.0457 36.4503 24.0457H33.4694Z" fill="black" stroke="#BBF3FB" stroke-width="0.334694"/>
<rect x="43.5103" y="47.6938" width="2.5102" height="2.5102" fill="black"/>
<rect x="50.2041" y="47.6938" width="2.5102" height="2.5102" fill="black"/>
<defs>
<linearGradient id="paint0_linear_94_561" x1="58.5713" y1="13.3874" x2="58.5713" y2="58.5711" gradientUnits="userSpaceOnUse">
<stop stop-color="#27D0E7" stop-opacity="0"/>
<stop offset="1" stop-color="#27D0E7"/>
</linearGradient>
</defs>
</svg>
