<svg width="82" height="64" viewBox="0 0 82 64" fill="none" xmlns="http://www.w3.org/2000/svg">
<circle opacity="0.2" cx="51.3106" cy="33.7378" r="22.5918" fill="url(#paint0_linear_94_556)"/>
<path d="M38.402 35.2261C38.4011 34.1608 38.12 33.1145 37.5869 32.1921C37.0539 31.2698 36.2876 30.5039 35.365 29.9713C34.4424 29.4386 33.3959 29.1581 32.3306 29.1577C31.2653 29.1573 30.2186 29.4372 29.2956 29.9692L17.2653 36.8903C16.3427 37.4238 15.5764 38.1902 15.0428 39.1127C14.5092 40.0352 14.2271 41.0816 14.2246 42.1473C14.2246 43.7583 14.8613 45.304 15.9961 46.4475C17.1308 47.591 18.6716 48.2396 20.2826 48.2519C21.3441 48.2618 22.3897 47.9937 23.3154 47.4742L31.2709 42.9871L35.3613 40.522C36.2891 39.9845 37.0586 39.212 37.5925 38.2822C38.1263 37.3524 38.4055 36.2983 38.402 35.2261ZM30.501 41.6029L22.5611 46.0822C21.8756 46.4762 21.0988 46.6838 20.3081 46.6842C19.5174 46.6846 18.7404 46.4778 18.0544 46.0845C17.3685 45.6912 16.7976 45.1251 16.3985 44.4425C15.9994 43.7599 15.7862 42.9846 15.7799 42.1939C15.7869 41.4051 15.9993 40.6317 16.3961 39.9499C16.7929 39.2681 17.3605 38.7014 18.0429 38.3057L30.0733 31.3612C30.7582 30.9666 31.5347 30.7586 32.3252 30.758C33.1156 30.7575 33.8924 30.9643 34.5779 31.3578C35.2635 31.7513 35.8338 32.3178 36.2319 33.0007C36.63 33.6836 36.842 34.459 36.8467 35.2495C36.8412 36.0377 36.6303 36.8109 36.2349 37.4928C35.8394 38.1746 35.2729 38.7416 34.5915 39.1377L30.501 41.6029Z" fill="black"/>
<path d="M33.2695 33.1268C32.8274 32.867 32.3241 32.73 31.8113 32.73C31.2986 32.73 30.7952 32.867 30.3532 33.1268L24.443 36.5096L25.2207 37.855L31.1698 34.4721C31.3759 34.3504 31.6109 34.2861 31.8502 34.2861C32.0896 34.2861 32.3246 34.3504 32.5307 34.4721C32.7339 34.5916 32.9024 34.7621 33.0194 34.9667C33.1365 35.1713 33.198 35.4029 33.198 35.6386C33.198 35.8743 33.1365 36.106 33.0194 36.3106C32.9024 36.5152 32.7339 36.6857 32.5307 36.8051L21.418 43.1741C21.2119 43.2959 20.9769 43.3601 20.7375 43.3601C20.4981 43.3601 20.2631 43.2959 20.0571 43.1741C19.8538 43.0547 19.6854 42.8842 19.5683 42.6796C19.4513 42.475 19.3897 42.2434 19.3897 42.0076C19.3897 41.7719 19.4513 41.5403 19.5683 41.3357C19.6854 41.1311 19.8538 40.9606 20.0571 40.8412L21.3013 40.1257L20.5236 38.7726L19.2716 39.488C18.8284 39.7448 18.4601 40.1133 18.2036 40.5568C17.9471 41.0002 17.8113 41.5031 17.8096 42.0154C17.8065 42.529 17.9394 43.0342 18.1949 43.4797C18.4503 43.9253 18.8192 44.2952 19.264 44.552C19.7087 44.8087 20.2136 44.9431 20.7271 44.9415C21.2407 44.9399 21.7447 44.8023 22.1878 44.5428L33.2695 38.1816C33.7127 37.9247 34.0809 37.5563 34.3375 37.1128C34.594 36.6694 34.7298 36.1665 34.7314 35.6542C34.7346 35.1409 34.6008 34.6362 34.3438 34.1919C34.0868 33.7476 33.7159 33.3799 33.2695 33.1268Z" fill="black"/>
<path opacity="0.35" d="M26.9467 17.9621L43.3631 8.48246L59.7794 17.9621L43.3631 27.4417L26.9467 17.9621Z" fill="#FFCA41"/>
<path d="M43.3631 6.69385L24.6138 17.5111V28.3361H26.1691V19.3074L42.5854 28.7871V47.7775L34.8555 43.3137L34.0779 44.6591L43.3631 50.0171L62.1124 39.161V17.5111L43.3631 6.69385ZM26.9467 17.9621L43.3631 8.48246L59.7794 17.9621L43.3631 27.4417L26.9467 17.9621ZM44.1407 47.7775V28.7871L60.5571 19.3074V38.259L44.1407 47.7775Z" fill="black"/>
<defs>
<linearGradient id="paint0_linear_94_556" x1="51.3106" y1="11.146" x2="51.3106" y2="56.3297" gradientUnits="userSpaceOnUse">
<stop stop-color="#F2BB2E" stop-opacity="0"/>
<stop offset="1" stop-color="#F2BB2E"/>
</linearGradient>
</defs>
</svg>
