<svg width="82" height="64" viewBox="0 0 82 64" fill="none" xmlns="http://www.w3.org/2000/svg">
<circle opacity="0.15" cx="51.8775" cy="31.7959" r="22.5918" fill="url(#paint0_linear_94_565)"/>
<path opacity="0.3" d="M56.0261 42.912C54.3066 35.8857 47.5422 36.8502 47.5422 36.8502C47.3415 37.2037 41.6245 43.6814 40.5596 43.6814C39.4991 43.6814 33.7821 37.208 33.577 36.8502C33.577 36.8502 26.8038 35.8857 25.0844 42.912C24.7178 44.4045 24.4298 45.5828 24.2028 46.508C23.3649 49.9382 57.7368 49.9382 56.8989 46.508C56.6807 45.5828 56.3927 44.4045 56.0261 42.912Z" fill="#836FFF"/>
<path d="M44.0283 27.3096H37.0894C37.0894 29.0945 38.5382 30.5434 40.3232 30.5434H40.7945C42.5794 30.5434 44.0283 29.0945 44.0283 27.3096Z" fill="black"/>
<path d="M57.7974 46.2897L56.9159 42.6936C56.4795 40.913 55.4975 39.3943 53.9919 38.1855C52.8223 37.2428 51.3385 36.4922 49.5798 35.951C47.2799 35.2397 45.1196 35.0738 44.1508 35.0302V33.5595C45.7131 33.0227 47.1446 32.1324 48.3447 30.9323C49.4532 29.8238 50.2999 28.5145 50.8454 27.0918C50.9283 27.1136 51.0112 27.1311 51.1028 27.1311C52.6128 27.1311 53.8392 25.9048 53.8392 24.3948V23.247C53.8392 21.8985 52.8572 20.7769 51.5742 20.55V18.5818C51.5742 15.6403 50.4264 12.8735 48.3491 10.7918C46.2674 8.71881 43.5005 7.57104 40.5591 7.57104C37.6177 7.57104 34.8508 8.71881 32.7691 10.7961C30.6874 12.8778 29.544 15.6447 29.544 18.5861V20.5543C28.2566 20.7769 27.279 21.9029 27.279 23.2514V24.3992C27.279 25.9091 28.5054 27.1355 30.0153 27.1355C30.1026 27.1355 30.1899 27.1224 30.2728 27.0962C30.8183 28.5189 31.6606 29.8238 32.7735 30.9366C33.9736 32.1368 35.4051 33.027 36.9674 33.5638V35.0346C35.9986 35.0738 33.8427 35.244 31.5428 35.9554C29.784 36.4965 28.3002 37.2515 27.1306 38.1898C25.625 39.3987 24.6431 40.9174 24.2067 42.698L23.3208 46.294C23.2117 46.7304 23.3164 47.1799 23.6088 47.5553C24.0103 48.0659 24.7784 48.4586 26.0265 48.7903C27.0215 49.0565 28.3264 49.2835 29.9106 49.4711C32.8215 49.8115 36.6008 49.9992 40.5547 49.9992C44.5086 49.9992 48.288 49.8115 51.1989 49.4711C52.783 49.2835 54.0879 49.0565 55.0829 48.7903C56.3311 48.4586 57.1035 48.0659 57.5007 47.5553C57.8018 47.1756 57.9022 46.7304 57.7974 46.2897ZM38.4338 37.4043C39.1888 37.6312 39.983 37.7665 40.5591 37.7665C41.1352 37.7665 41.9294 37.6312 42.6844 37.4043C43.3216 37.2123 43.7187 37.0246 43.9719 36.8631C44.4388 36.8806 45.364 36.933 46.4943 37.1206C45.4993 38.5695 43.4001 41.2316 40.5547 42.6587C37.7093 41.2316 35.6102 38.5695 34.6151 37.1206C35.7498 36.9373 36.6707 36.8806 37.142 36.8631C37.3995 37.0246 37.7966 37.2123 38.4338 37.4043ZM52.0106 23.2514V24.3992C52.0106 24.805 51.7444 25.1454 51.3734 25.2633C51.5087 24.5737 51.5742 23.8667 51.5742 23.1466V22.4833C51.836 22.6404 52.0106 22.9241 52.0106 23.2514ZM40.5591 9.40398C45.6215 9.40398 49.7412 13.5237 49.7412 18.5861V21.4097C48.6982 21.1522 47.7032 20.7115 46.8129 20.1092C45.6564 19.328 44.6745 18.2763 43.9806 17.0674C43.8191 16.7837 43.5136 16.6092 43.1863 16.6092C42.859 16.6092 42.5535 16.7837 42.392 17.0674C41.6021 18.4465 40.4587 19.5986 39.0927 20.406C37.6875 21.2395 36.0728 21.6759 34.4275 21.6759C33.3757 21.6759 32.3502 21.5014 31.377 21.1566V18.5818C31.377 13.5237 35.4967 9.40398 40.5591 9.40398ZM29.1076 24.3948V23.247C29.1076 22.9197 29.2822 22.636 29.5397 22.4746V23.1379C29.5397 23.8536 29.6095 24.565 29.7404 25.2545C29.3782 25.1454 29.1076 24.8007 29.1076 24.3948ZM31.377 23.1423V23.0855C32.3632 23.3692 33.3845 23.5132 34.4275 23.5132C36.4001 23.5132 38.3378 22.9852 40.0267 21.9858C41.253 21.2613 42.3266 20.3012 43.1907 19.1753C43.9195 20.1267 44.801 20.9602 45.7917 21.6323C46.9831 22.4397 48.336 23.0026 49.7456 23.2907C49.6671 28.2876 45.5779 32.3244 40.5635 32.3244C35.4967 32.3288 31.377 28.209 31.377 23.1423ZM40.5591 34.1617C41.157 34.1617 41.7461 34.1137 42.3222 34.0221V35.5975C41.7941 35.7677 41.0741 35.9336 40.5591 35.9336C40.0441 35.9336 39.324 35.7677 38.796 35.5975V34.0221C39.3721 34.1137 39.9612 34.1617 40.5591 34.1617ZM50.9457 47.6513C48.1091 47.9829 44.4214 48.1619 40.5591 48.1619C36.6968 48.1619 33.0091 47.9786 30.1725 47.6513C26.5589 47.2323 25.4592 46.7043 25.1581 46.5035L25.9829 43.13C26.3189 41.7466 27.0914 40.5639 28.2741 39.6125C29.2647 38.8183 30.5434 38.1724 32.0752 37.701C32.2803 37.6356 32.4854 37.5788 32.6906 37.5221C33.5677 38.923 36.2211 42.7111 40.1794 44.5004C40.3016 44.5527 40.4282 44.5833 40.5591 44.5833C40.69 44.5833 40.8166 44.5571 40.9388 44.5004C44.897 42.7111 47.5504 38.9186 48.4276 37.5221C48.6327 37.5745 48.8379 37.6356 49.043 37.701C50.5792 38.1724 51.8578 38.8183 52.8441 39.6125C54.0268 40.5639 54.7993 41.7466 55.1353 43.13L55.9601 46.5035C55.659 46.7086 54.5592 47.2323 50.9457 47.6513Z" fill="black" stroke="white" stroke-width="0.3"/>
<path d="M46.9084 43.2661H50.6572V45.0903H46.9084V43.2661Z" fill="black"/>
<defs>
<linearGradient id="paint0_linear_94_565" x1="51.8775" y1="9.2041" x2="51.8775" y2="54.3878" gradientUnits="userSpaceOnUse">
<stop stop-color="#836FFF" stop-opacity="0"/>
<stop offset="1" stop-color="#836FFF"/>
</linearGradient>
</defs>
</svg>
