<svg width="49" height="39" viewBox="0 0 49 39" fill="none" xmlns="http://www.w3.org/2000/svg">
<path d="M7.35945 30.0919V30.2592H7.5268H41.31H41.4773V30.0919V2.27045V2.1031H41.31H7.5268H7.35945V2.27045V30.0919ZM42.3036 31.9118H6.53317C6.07683 31.9118 5.7069 31.5418 5.7069 31.0855V1.27683C5.7069 0.820471 6.07682 0.45055 6.53317 0.45055H42.3036C42.7598 0.45055 43.1299 0.820482 43.1299 1.27683V31.0855C43.1299 31.5418 42.7598 31.9118 42.3036 31.9118Z" fill="black" stroke="white" stroke-width="0.334694"/>
<path opacity="0.3" d="M11.5012 27.1109H37.3354C37.8841 27.1109 38.329 26.666 38.329 26.1173V6.24484C38.329 5.69607 37.8841 5.25122 37.3354 5.25122H11.5012C10.9524 5.25122 10.5076 5.69607 10.5076 6.24484V26.1173C10.5076 26.666 10.9524 27.1109 11.5012 27.1109Z" fill="#3CDFF5"/>
<path d="M12.3275 25.1237V25.291H12.4948H36.3418H36.5091V25.1237V7.23847V7.07112H36.3418H12.4948H12.3275V7.23847V25.1237ZM37.3354 26.9436H11.5012C11.0448 26.9436 10.6749 26.5736 10.6749 26.1173V6.24484C10.6749 5.78849 11.0448 5.41857 11.5012 5.41857H37.3354C37.7916 5.41857 38.1616 5.7885 38.1616 6.24484V26.1173C38.1616 26.5735 37.7916 26.9436 37.3354 26.9436Z" fill="black" stroke="white" stroke-width="0.334694"/>
<path d="M2.55903 31.9122H2.38895L2.39171 32.0822C2.42875 34.371 4.30172 36.2214 6.5992 36.2214H42.2372C44.5346 36.2214 46.4077 34.371 46.4446 32.0822L46.4474 31.9122H46.2773H2.55903ZM42.2372 37.8739H6.5992C3.36786 37.8739 0.738636 35.2447 0.738636 32.0133V31.0859C0.738636 30.6296 1.10857 30.2596 1.56491 30.2596H47.2715C47.7278 30.2596 48.0978 30.6297 48.0978 31.0859V32.0133C48.0978 35.2447 45.4686 37.8739 42.2372 37.8739Z" fill="black" stroke="white" stroke-width="0.334694"/>
<path fill-rule="evenodd" clip-rule="evenodd" d="M26.925 13.3529C27.1537 13.1242 27.1537 12.7533 26.925 12.5246C26.6963 12.2958 26.3254 12.2958 26.0967 12.5246L21.913 16.7083C21.6843 16.937 21.6843 17.3078 21.913 17.5366C22.1417 17.7653 22.5126 17.7653 22.7413 17.5366L26.925 13.3529ZM27.7617 17.5366C27.9905 17.3078 27.9905 16.937 27.7617 16.7083C27.533 16.4795 27.1622 16.4795 26.9334 16.7083L22.7497 20.8919C22.521 21.1207 22.521 21.4915 22.7497 21.7203C22.9785 21.949 23.3493 21.949 23.5781 21.7203L27.7617 17.5366Z" fill="black"/>
<path d="M16.4694 11.0457H16.3021V11.2131V14.1939C16.3021 14.6503 15.9322 15.0202 15.4758 15.0202C15.0194 15.0202 14.6495 14.6503 14.6495 14.1939V10.2195C14.6495 9.7631 15.0194 9.39318 15.4758 9.39318H19.4503C19.9066 9.39318 20.2766 9.7631 20.2766 10.2195C20.2766 10.6758 19.9066 11.0457 19.4503 11.0457H16.4694Z" fill="black" stroke="#BBF3FB" stroke-width="0.334694"/>
</svg>
