<svg width="135" height="40" viewBox="0 0 135 40" fill="none" xmlns="http://www.w3.org/2000/svg">
<path fill-rule="evenodd" clip-rule="evenodd" d="M17.7977 0.952946L17.1911 0.601562L16.5845 0.952946L0.806722 10.0925L0.203125 10.4421V11.1396V29.4187V30.1162L0.806722 30.4659L16.5845 39.6054L17.1911 39.9567L17.7977 39.6054L33.5755 30.4659L34.1791 30.1162V29.4187V11.1396V10.4421L33.5755 10.0925L17.7977 0.952946ZM2.62352 28.2148V13.8415L14.6583 24.9598L2.62352 28.2148ZM17.2923 25.7499L23.8016 33.3304L31.7587 28.7211V21.8373L17.2923 25.7499ZM22.5249 34.0699L15.7409 26.1695L3.79583 29.4002L17.1911 37.1596L22.5249 34.0699ZM3.00536 12.2197L15.9296 24.1598L25.8667 8.57899L3.00536 12.2197ZM24.0877 7.39368L17.1911 3.39872L5.06461 10.4232L24.0877 7.39368ZM17.6568 24.1489L27.1949 9.19356L31.7587 11.8372V20.3349L17.6568 24.1489Z" fill="black"/>
<path d="M44.3917 24.2955C44.549 24.6458 44.7775 24.9596 45.0625 25.217C45.3475 25.4744 45.6829 25.6698 46.0474 25.7908C46.4319 25.9352 46.8398 26.0071 47.2505 26.0028C47.6852 26.0091 48.116 25.9194 48.5121 25.7402C48.9082 25.5609 49.2599 25.2965 49.5421 24.9658C49.8187 24.6436 50.0325 24.2725 50.1723 23.8715C50.3159 23.4511 50.3875 23.0095 50.3843 22.5653C50.3883 22.1222 50.3066 21.6826 50.1437 21.2705C49.9902 20.8874 49.7646 20.5373 49.4791 20.2393C49.1902 19.9409 48.8431 19.7049 48.4593 19.5461C48.0491 19.3757 47.6087 19.29 47.1645 19.294C46.6085 19.2908 46.06 19.4225 45.5661 19.6778C45.0616 19.9387 44.6348 20.328 44.3286 20.8065H43.3547L44.5807 14.281H50.8827V15.3237H45.3828L44.5807 19.4888L44.6151 19.5289C44.9353 19.1495 45.342 18.8528 45.801 18.6638C46.2655 18.4597 46.7661 18.3506 47.2734 18.3429C47.873 18.335 48.4685 18.444 49.0265 18.6638C49.5293 18.8672 49.984 19.1736 50.3614 19.5632C50.7323 19.9598 51.0188 20.4276 51.2036 20.9382C51.4081 21.4998 51.5091 22.0937 51.5015 22.6913C51.5145 23.2682 51.4077 23.8416 51.1878 24.3751C50.9679 24.9086 50.6397 25.3906 50.2239 25.7908C49.8215 26.1724 49.3486 26.4721 48.8317 26.6731C48.2837 26.8852 47.7006 26.9921 47.113 26.9882C46.5595 26.9943 46.0091 26.9052 45.4859 26.7246C45.0072 26.5637 44.5665 26.3063 44.1911 25.9684C43.8197 25.6306 43.5231 25.2188 43.3203 24.7595C43.0986 24.2475 42.9817 23.6962 42.9766 23.1382H44.1224C44.1327 23.5382 44.2243 23.932 44.3917 24.2955Z" fill="#030000" stroke="#030000" stroke-width="0.103124" stroke-miterlimit="10"/>
<path d="M61.7117 14.281V15.3237C61.3163 15.7305 60.8466 16.2805 60.2908 16.968C59.6879 17.7426 59.1513 18.5667 58.6867 19.4315C58.1291 20.4708 57.6706 21.5603 57.3174 22.6856C56.9149 23.987 56.6819 25.3349 56.6242 26.696H55.4039C55.4663 25.679 55.6139 24.6691 55.8451 23.6767C56.0671 22.7207 56.3857 21.7897 56.7961 20.8981C57.234 19.9471 57.7514 19.0349 58.3429 18.1711C59.0296 17.1707 59.7777 16.2141 60.583 15.3065H53.6222V14.281H61.7117Z" fill="#030000" stroke="#030000" stroke-width="0.103124" stroke-miterlimit="10"/>
<path d="M69.7832 13.8687C70.3066 13.8668 70.8288 13.9186 71.3416 14.0234C71.8078 14.113 72.2529 14.2899 72.6535 14.5447C73.0263 14.7894 73.3332 15.1219 73.5473 15.513C73.9302 16.2841 73.996 17.1746 73.7306 17.9937C73.6254 18.3048 73.4707 18.597 73.2723 18.8588C73.0749 19.1153 72.8368 19.3379 72.5676 19.5176C72.2928 19.6992 71.9854 19.8256 71.6624 19.89V19.9301C72.4255 20.0069 73.1315 20.3691 73.6389 20.9441C74.1392 21.5326 74.4026 22.2862 74.378 23.0582C74.3765 23.2904 74.3573 23.5221 74.3207 23.7514C74.2837 24.0228 74.2124 24.2885 74.1087 24.542C73.9903 24.8282 73.8322 25.0963 73.6389 25.3384C73.4156 25.6225 73.1369 25.8584 72.8197 26.0316C72.4263 26.2518 72.0039 26.4157 71.565 26.5186C70.9772 26.6545 70.375 26.718 69.7718 26.7076H64.3807V13.8687H69.7832ZM69.7832 19.4947C70.2151 19.5047 70.6459 19.4487 71.0608 19.3285C71.3884 19.232 71.6939 19.0724 71.9603 18.8588C72.1902 18.6717 72.3744 18.4346 72.4988 18.1655C72.6203 17.9014 72.6828 17.614 72.6822 17.3234C72.6822 15.7116 71.7159 14.9076 69.7832 14.9114H65.5781V19.4947H69.7832ZM69.7832 25.6649C70.2177 25.6671 70.6514 25.6268 71.078 25.5446C71.4627 25.4768 71.8305 25.3348 72.1608 25.1264C72.4719 24.9211 72.7245 24.6389 72.8942 24.3071C73.0876 23.9079 73.1801 23.4672 73.1634 23.0238C73.1881 22.6651 73.1211 22.3059 72.9688 21.9802C72.8165 21.6545 72.5838 21.3729 72.2926 21.1619C71.5403 20.7006 70.664 20.4826 69.7832 20.5374H65.5781V25.6936L69.7832 25.6649Z" fill="#030000" stroke="#030000" stroke-width="0.103124" stroke-miterlimit="10"/>
<path d="M77.9291 13.8687V25.6649H85.1191V26.7076H76.7088V13.8687H77.9291Z" fill="#030000" stroke="#030000" stroke-width="0.103124" stroke-miterlimit="10"/>
<path d="M86.4149 17.7699C86.6568 16.9927 87.0458 16.2691 87.5607 15.6387C88.0753 15.0129 88.7232 14.5098 89.457 14.1663C90.2864 13.7768 91.1934 13.5808 92.1096 13.5934C93.0222 13.5802 93.9256 13.7762 94.7507 14.1663C95.4819 14.5115 96.1275 15.0144 96.6413 15.6387C97.1587 16.2675 97.5479 16.9915 97.7871 17.7699C98.2914 19.4224 98.2914 21.1877 97.7871 22.8402C97.5503 23.6161 97.1608 24.3368 96.6413 24.9599C96.1257 25.581 95.4804 26.0816 94.7507 26.4266C93.9256 26.8168 93.0222 27.0127 92.1096 26.9995C91.1934 27.0121 90.2864 26.8162 89.457 26.4266C88.7248 26.0831 88.0773 25.5823 87.5607 24.9599C87.0435 24.3353 86.6542 23.615 86.4149 22.8402C85.9106 21.1877 85.9106 19.4224 86.4149 17.7699ZM87.5607 22.3532C87.7371 23.0058 88.0302 23.6211 88.4258 24.1693C88.8199 24.7077 89.3337 25.147 89.9268 25.4526C90.6065 25.7946 91.3606 25.9619 92.1211 25.9396C92.8779 25.9622 93.6284 25.7948 94.3038 25.4526C94.8943 25.1454 95.4059 24.7063 95.7991 24.1693C96.187 23.6204 96.4706 23.0048 96.6356 22.3532C97.0099 21.0037 97.0099 19.5778 96.6356 18.2282C96.4635 17.5768 96.1722 16.963 95.7762 16.4179C95.383 15.8809 94.8713 15.4417 94.2809 15.1345C93.6054 14.7924 92.855 14.625 92.0981 14.6476C91.3376 14.6252 90.5836 14.7926 89.9039 15.1345C89.3108 15.4401 88.7969 15.8795 88.4029 16.4179C88.0074 16.964 87.7143 17.5774 87.5378 18.2282C87.1711 19.5788 87.1711 21.0027 87.5378 22.3532H87.5607Z" fill="#030000" stroke="#030000" stroke-width="0.103124" stroke-miterlimit="10"/>
<path d="M109.258 16.4293C109.019 16.0599 108.714 15.7375 108.358 15.4783C108.012 15.2154 107.625 15.0121 107.212 14.8767C106.781 14.7382 106.331 14.6686 105.877 14.6705C105.117 14.6482 104.363 14.8155 103.683 15.1575C103.09 15.4631 102.576 15.9024 102.182 16.4408C101.787 16.9869 101.494 17.6003 101.317 18.2512C100.943 19.6007 100.943 21.0266 101.317 22.3761C101.494 23.0287 101.787 23.644 102.182 24.1922C102.576 24.7306 103.09 25.17 103.683 25.4756C104.363 25.8175 105.117 25.9849 105.877 25.9625C106.433 25.9707 106.984 25.8593 107.493 25.636C107.963 25.4315 108.386 25.1332 108.736 24.7594C109.088 24.3743 109.373 23.9328 109.578 23.4532C109.8 22.9417 109.939 22.3983 109.991 21.8433H111.217C111.143 22.5838 110.95 23.3075 110.644 23.986C110.379 24.5899 110.002 25.138 109.533 25.6016C109.069 26.0393 108.521 26.3785 107.923 26.5985C107.266 26.8458 106.568 26.9682 105.866 26.9594C104.95 26.972 104.043 26.7761 103.213 26.3865C102.481 26.043 101.834 25.5422 101.317 24.9198C100.8 24.2952 100.411 23.5749 100.171 22.8001C99.667 21.1476 99.667 19.3823 100.171 17.7298C100.413 16.9526 100.802 16.229 101.317 15.5986C101.832 14.9728 102.48 14.4697 103.213 14.1262C104.043 13.7367 104.95 13.5407 105.866 13.5533C106.472 13.5541 107.074 13.6448 107.654 13.8226C108.222 13.9988 108.757 14.27 109.235 14.6246C109.71 14.9775 110.113 15.4191 110.421 15.9252C110.74 16.4698 110.936 17.0781 110.994 17.7069H109.773C109.674 17.2551 109.5 16.8232 109.258 16.4293Z" fill="#030000" stroke="#030000" stroke-width="0.103124" stroke-miterlimit="10"/>
<path d="M114.643 13.8687V20.7722L122.091 13.8973H123.741L118.011 19.2024L124.027 26.7076H122.446L117.089 20.016L114.626 22.3076V26.7076H113.422V13.8687H114.643Z" fill="#030000" stroke="#030000" stroke-width="0.103124" stroke-miterlimit="10"/>
<path d="M126.311 24.1351C126.507 24.568 126.813 24.9416 127.199 25.2179C127.606 25.4957 128.064 25.6904 128.546 25.7908C129.09 25.9084 129.645 25.9661 130.201 25.9626C130.571 25.9591 130.938 25.911 131.296 25.8194C131.686 25.7242 132.059 25.5696 132.401 25.3611C132.739 25.1537 133.029 24.8786 133.255 24.5533C133.49 24.1991 133.61 23.7809 133.599 23.3559C133.607 23.0283 133.524 22.7048 133.358 22.422C133.196 22.1597 132.981 21.9335 132.728 21.7575C132.464 21.5734 132.177 21.4251 131.874 21.3163C131.574 21.2069 131.268 21.1132 130.958 21.0356L128.093 20.3367C127.723 20.2406 127.359 20.12 127.005 19.9757C126.663 19.8418 126.349 19.6477 126.077 19.4028C125.807 19.1569 125.591 18.8587 125.441 18.5263C125.265 18.124 125.18 17.6875 125.194 17.2487C125.205 16.8754 125.267 16.5053 125.378 16.1487C125.502 15.6881 125.732 15.2626 126.048 14.9055C126.43 14.5092 126.89 14.197 127.4 13.9888C128.102 13.7066 128.855 13.574 129.611 13.5992C130.226 13.5971 130.837 13.6819 131.427 13.8513C131.976 14.0024 132.49 14.2593 132.94 14.6075C133.395 14.9585 133.76 15.4116 134.007 15.9302C134.254 16.4488 134.375 17.0182 134.361 17.5924H133.129C133.118 17.143 133.005 16.702 132.797 16.3034C132.607 15.9467 132.343 15.6343 132.023 15.3867C131.697 15.1295 131.326 14.9352 130.929 14.8138C130.505 14.6861 130.065 14.6224 129.623 14.6247C129.216 14.6235 128.81 14.6697 128.414 14.7622C128.048 14.838 127.699 14.9839 127.388 15.1919C127.091 15.3891 126.847 15.6568 126.678 15.9711C126.486 16.3441 126.393 16.7605 126.409 17.1799C126.403 17.4472 126.454 17.7127 126.558 17.9591C126.656 18.1782 126.801 18.3736 126.982 18.532C127.168 18.6883 127.376 18.8158 127.6 18.9101C127.844 19.008 128.095 19.0866 128.351 19.145L131.479 19.9184C131.918 20.0317 132.347 20.1792 132.762 20.3596C133.146 20.5212 133.503 20.7394 133.822 21.007C134.128 21.2645 134.374 21.585 134.544 21.9465C134.727 22.3733 134.815 22.8346 134.802 23.2986C134.8 23.4904 134.785 23.6819 134.756 23.8715C134.722 24.136 134.65 24.3944 134.544 24.6392C134.417 24.93 134.253 25.2034 134.057 25.4527C133.817 25.7539 133.524 26.0084 133.192 26.2033C132.768 26.4482 132.311 26.6297 131.834 26.7418C130.5 27.0352 129.115 27.0156 127.79 26.6845C127.191 26.5345 126.629 26.2634 126.14 25.8882C125.688 25.5215 125.334 25.0492 125.108 24.5132C124.85 23.8679 124.743 23.1724 124.793 22.4793H126.019C125.982 23.0467 126.082 23.6148 126.311 24.1351Z" fill="#030000" stroke="#030000" stroke-width="0.103124" stroke-miterlimit="10"/>
</svg>
