<svg width="84" height="18" viewBox="0 0 84 18" fill="none" xmlns="http://www.w3.org/2000/svg">
<path d="M27.516 14.168C29.168 14.168 30.288 13.384 31.072 12.32L30.078 11.774C29.546 12.572 28.58 13.132 27.516 13.132C25.472 13.132 23.918 11.55 23.918 9.338C23.918 7.112 25.472 5.544 27.516 5.544C28.58 5.544 29.546 6.118 30.078 6.902L31.058 6.356C30.316 5.306 29.168 4.508 27.516 4.508C24.828 4.508 22.714 6.468 22.714 9.338C22.714 12.208 24.828 14.168 27.516 14.168ZM35.4649 14.168C37.5229 14.168 38.8109 12.572 38.8109 10.612C38.8109 8.652 37.5229 7.07 35.4649 7.07C33.4069 7.07 32.1189 8.652 32.1189 10.612C32.1189 12.572 33.4069 14.168 35.4649 14.168ZM35.4649 13.23C34.0229 13.23 33.2109 11.998 33.2109 10.612C33.2109 9.24 34.0229 8.008 35.4649 8.008C36.9069 8.008 37.7049 9.24 37.7049 10.612C37.7049 11.998 36.9069 13.23 35.4649 13.23ZM43.8547 14.168C45.6327 14.168 46.8647 12.796 46.8647 10.612C46.8647 8.414 45.6327 7.07 43.8547 7.07C42.9027 7.07 42.0627 7.56 41.5727 8.246V7.238H40.5227V16.576H41.5727V12.978C42.1187 13.734 42.9307 14.168 43.8547 14.168ZM43.5887 13.23C42.7627 13.23 41.9367 12.726 41.5727 12.138V9.086C41.9367 8.498 42.7627 8.008 43.5887 8.008C44.9467 8.008 45.7587 9.114 45.7587 10.612C45.7587 12.11 44.9467 13.23 43.5887 13.23ZM48.1564 16.646C48.3524 16.702 48.7024 16.744 48.9264 16.744C49.8224 16.73 50.5084 16.352 50.9144 15.372L54.3024 7.238H53.1544L50.9144 12.782L48.6604 7.238H47.5264L50.3544 14.07L49.9064 15.092C49.6684 15.652 49.3604 15.806 48.8984 15.806C48.7304 15.806 48.4784 15.764 48.3244 15.694L48.1564 16.646ZM64.551 14V12.964H60.211V4.662H59.049V14H64.551ZM66.6618 6.272C67.0538 6.272 67.3758 5.964 67.3758 5.572C67.3758 5.18 67.0538 4.858 66.6618 4.858C66.2838 4.858 65.9618 5.18 65.9618 5.572C65.9618 5.964 66.2838 6.272 66.6618 6.272ZM67.1938 14V7.238H66.1438V14H67.1938ZM74.9023 14V9.254C74.9023 7.784 74.1603 7.07 72.7463 7.07C71.7383 7.07 70.8143 7.658 70.3383 8.218V7.238H69.2883V14H70.3383V9.058C70.7303 8.512 71.5143 8.008 72.3403 8.008C73.2503 8.008 73.8523 8.386 73.8523 9.576V14H74.9023ZM82.9492 14L79.9392 10.304L82.9352 7.238H81.6052L78.0492 10.836V4.662H76.9992V14H78.0492V12.068L79.1692 10.962L81.6052 14H82.9492Z" fill="#2B7BF4"/>
<path d="M7.93125 10.5187C7.7625 10.5187 7.65 10.4625 7.5375 10.35C6.8625 9.67495 6.46875 8.77495 6.46875 7.8187C6.46875 6.86245 6.8625 5.96245 7.5375 5.28745L10.7437 2.0812C11.4187 1.4062 12.3187 1.01245 13.275 1.01245C14.2312 1.01245 15.1312 1.4062 15.8062 2.0812C17.2125 3.48745 17.2125 5.73745 15.8062 7.1437L14.3437 8.6062C14.1187 8.8312 13.7812 8.8312 13.5562 8.6062C13.3312 8.3812 13.3312 8.0437 13.5562 7.8187L15.0187 6.3562C15.975 5.39995 15.975 3.82495 15.0187 2.8687C14.5687 2.4187 13.95 2.13745 13.275 2.13745C12.6 2.13745 11.9812 2.4187 11.5312 2.8687L8.325 6.07495C7.875 6.52495 7.59375 7.1437 7.59375 7.8187C7.59375 8.4937 7.875 9.11245 8.325 9.56245C8.55 9.78745 8.55 10.125 8.325 10.35C8.2125 10.4625 8.1 10.5187 7.93125 10.5187Z" fill="#2B7BF4"/>
<path d="M4.725 16.7625C3.825 16.7625 2.86875 16.425 2.19375 15.6937C1.51875 15.0187 1.125 14.1187 1.125 13.1625C1.125 12.2062 1.51875 11.3062 2.19375 10.6312L3.65625 9.16873C3.88125 8.94373 4.21875 8.94373 4.44375 9.16873C4.66875 9.39372 4.66875 9.73123 4.44375 9.95623L2.98125 11.4187C2.53125 11.8687 2.25 12.4875 2.25 13.1625C2.25 13.8375 2.53125 14.4562 2.98125 14.9062C3.9375 15.8625 5.5125 15.8625 6.46875 14.9062L9.675 11.7C10.125 11.25 10.4062 10.6312 10.4062 9.95623C10.4062 9.28123 10.125 8.66248 9.675 8.21248C9.45 7.98748 9.45 7.64998 9.675 7.42498C9.9 7.19998 10.2375 7.19998 10.4625 7.42498C11.1375 8.09998 11.5312 8.99998 11.5312 9.95623C11.5312 10.9125 11.1375 11.8125 10.4625 12.4875L7.25625 15.6937C6.58125 16.3687 5.625 16.7625 4.725 16.7625Z" fill="#2B7BF4"/>
</svg>
