<svg width="60" height="18" viewBox="0 0 60 18" fill="none" xmlns="http://www.w3.org/2000/svg">
<path d="M28.116 14.168C30.636 14.168 31.56 12.782 31.56 11.424C31.56 7.938 26.03 9.142 26.03 7.042C26.03 6.16 26.828 5.558 27.948 5.558C28.97 5.558 29.95 5.908 30.65 6.678L31.35 5.824C30.566 4.998 29.46 4.522 28.032 4.522C26.198 4.522 24.826 5.572 24.826 7.112C24.826 10.444 30.356 9.114 30.356 11.522C30.356 12.236 29.824 13.132 28.158 13.132C26.842 13.132 25.834 12.488 25.218 11.802L24.532 12.684C25.302 13.552 26.492 14.168 28.116 14.168ZM38.8811 14V9.226C38.8811 7.756 38.1391 7.07 36.7251 7.07C35.7031 7.07 34.7791 7.658 34.3031 8.218V4.662H33.2531V14H34.3031V9.058C34.7091 8.512 35.4931 8.008 36.3051 8.008C37.2151 8.008 37.8311 8.358 37.8311 9.548V14H38.8811ZM46.2557 14V9.352C46.2557 7.714 45.0657 7.07 43.6377 7.07C42.5317 7.07 41.6637 7.434 40.9357 8.19L41.4257 8.918C42.0277 8.274 42.6857 7.98 43.4977 7.98C44.4777 7.98 45.2057 8.498 45.2057 9.408V10.626C44.6597 9.996 43.8897 9.702 42.9657 9.702C41.8177 9.702 40.5997 10.416 40.5997 11.928C40.5997 13.398 41.8177 14.168 42.9657 14.168C43.8757 14.168 44.6457 13.846 45.2057 13.23V14H46.2557ZM43.3437 13.412C42.3637 13.412 41.6777 12.796 41.6777 11.942C41.6777 11.074 42.3637 10.458 43.3437 10.458C44.0857 10.458 44.7997 10.738 45.2057 11.298V12.572C44.7997 13.132 44.0857 13.412 43.3437 13.412ZM49.4105 14V9.212C49.7185 8.666 50.6005 8.134 51.2445 8.134C51.4125 8.134 51.5385 8.148 51.6645 8.176V7.098C50.7405 7.098 49.9565 7.616 49.4105 8.33V7.238H48.3605V14H49.4105ZM56.0336 14.168C57.1396 14.168 58.0496 13.804 58.7216 13.132L58.2176 12.446C57.6856 12.992 56.9016 13.3 56.1316 13.3C54.6756 13.3 53.7796 12.236 53.6956 10.962H59.1696V10.696C59.1696 8.666 57.9656 7.07 55.9216 7.07C53.9896 7.07 52.5896 8.652 52.5896 10.612C52.5896 12.726 54.0316 14.168 56.0336 14.168ZM58.1336 10.192H53.6956C53.7516 9.156 54.4656 7.938 55.9076 7.938C57.4476 7.938 58.1196 9.184 58.1336 10.192Z" fill="#3764B9"/>
<path d="M18 2.25054C18 1.0076 16.9924 0 15.7495 0H2.25054C1.0076 0 0 1.0076 0 2.25054V15.7495C0 16.9924 1.0076 18 2.25054 18H15.7495C16.9924 18 18 16.9924 18 15.7495V2.25054ZM14.64 4.49454H12.3709V6.7418H14.64V8.98908H12.3709V15.7527H10.1237V8.98908H7.87635V6.74182H10.1236V3.80032C10.1236 3.04485 10.9558 2.24728 11.8034 2.24728H14.64V4.49454Z" fill="#3764B9"/>
</svg>
