<svg width="24" height="24" viewBox="0 0 24 24" fill="none" xmlns="http://www.w3.org/2000/svg">
<path d="M6.40703 2.75C6.40703 2.55109 6.32801 2.36032 6.18736 2.21967C6.04671 2.07902 5.85594 2 5.65703 2C5.45812 2 5.26735 2.07902 5.1267 2.21967C4.98605 2.36032 4.90703 2.55109 4.90703 2.75V9.225C4.90703 9.42391 4.98605 9.61468 5.1267 9.75533C5.26735 9.89598 5.45812 9.975 5.65703 9.975C5.85594 9.975 6.04671 9.89598 6.18736 9.75533C6.32801 9.61468 6.40703 9.42391 6.40703 9.225V2.75ZM12.752 2.75C12.752 2.55109 12.673 2.36032 12.5324 2.21967C12.3917 2.07902 12.2009 2 12.002 2C11.8031 2 11.6123 2.07902 11.4717 2.21967C11.331 2.36032 11.252 2.55109 11.252 2.75V5C11.252 5.19891 11.331 5.38968 11.4717 5.53033C11.6123 5.67098 11.8031 5.75 12.002 5.75C12.2009 5.75 12.3917 5.67098 12.5324 5.53033C12.673 5.38968 12.752 5.19891 12.752 5V2.75ZM19.097 2.75C19.097 2.55109 19.018 2.36032 18.8774 2.21967C18.7367 2.07902 18.5459 2 18.347 2C18.1481 2 17.9573 2.07902 17.8167 2.21967C17.676 2.36032 17.597 2.55109 17.597 2.75V9.225C17.597 9.42391 17.676 9.61468 17.8167 9.75533C17.9573 9.89598 18.1481 9.975 18.347 9.975C18.5459 9.975 18.7367 9.89598 18.8774 9.75533C19.018 9.61468 19.097 9.42391 19.097 9.225V2.75ZM12.62 6.953C12.5512 6.85194 12.4588 6.76923 12.3507 6.71206C12.2427 6.6549 12.1223 6.62502 12 6.62502C11.8778 6.62502 11.7574 6.6549 11.6493 6.71206C11.5413 6.76923 11.4488 6.85194 11.38 6.953L8.84203 10.679L4.53603 11.956C4.41939 11.9905 4.31289 12.0528 4.22571 12.1376C4.13853 12.2224 4.07328 12.3272 4.03558 12.4428C3.99789 12.5584 3.98889 12.6815 4.00935 12.8014C4.02981 12.9213 4.07912 13.0344 4.15303 13.131L6.89303 16.712L6.76903 21.23C6.76583 21.3518 6.79236 21.4726 6.84632 21.5818C6.90028 21.6911 6.98005 21.7855 7.07872 21.857C7.1774 21.9285 7.29201 21.9749 7.41263 21.9921C7.53326 22.0094 7.65627 21.997 7.77103 21.956L12.001 20.444L16.229 21.956C16.3438 21.9972 16.467 22.0098 16.5877 21.9926C16.7085 21.9755 16.8232 21.9291 16.9221 21.8576C17.0209 21.7861 17.1007 21.6915 17.1547 21.5822C17.2088 21.4728 17.2353 21.3519 17.232 21.23L17.108 16.712L19.848 13.13C19.9217 13.0334 19.9708 12.9204 19.9912 12.8006C20.0115 12.6808 20.0025 12.5579 19.9648 12.4424C19.9271 12.3269 19.8619 12.2223 19.7749 12.1376C19.6878 12.0529 19.5815 11.9905 19.465 11.956L15.159 10.679L12.62 6.953ZM9.93103 11.744L12.001 8.707L14.069 11.744C14.1664 11.887 14.3102 11.9919 14.476 12.041L17.994 13.084L15.755 16.012C15.6507 16.1484 15.5964 16.3164 15.601 16.488L15.702 20.175L12.252 18.941C12.0891 18.8829 11.911 18.8829 11.748 18.941L8.29803 20.175L8.39903 16.488C8.40369 16.3164 8.34933 16.1484 8.24503 16.012L6.00603 13.084L9.52503 12.041C9.69052 11.9917 9.83392 11.8868 9.93103 11.744Z" fill="#353535" stroke="white" stroke-width="0.4"/>
<path d="M12.0028 8.70703L9.93281 11.744C9.8357 11.8868 9.6923 11.9917 9.52681 12.041L6.00781 13.084L8.24681 16.012C8.35111 16.1484 8.40547 16.3164 8.40081 16.488L8.29981 20.175L11.7498 18.941C11.9128 18.8829 12.0908 18.8829 12.2538 18.941L15.7038 20.175L15.6028 16.488C15.5981 16.3164 15.6525 16.1484 15.7568 16.012L17.9958 13.084L14.4778 12.041C14.312 11.9919 14.1682 11.887 14.0708 11.744L12.0028 8.70703Z" fill="#FFCA41"/>
</svg>
