<svg width="417" height="81" viewBox="0 0 417 81" fill="none" xmlns="http://www.w3.org/2000/svg">
<circle cx="30.5" cy="30.5" r="30.5" fill="#42E9AF"/>
<path d="M33.4695 38.024V38.772C37.0775 38.772 37.0775 39.916 37.0775 48.188V60.992C37.0775 70.54 33.5575 74.236 29.7735 75.6L29.9495 76.348C37.1215 75.292 43.6335 71.596 43.6335 60.992V42.82C43.6335 40.004 45.4815 38.772 47.4615 38.772V38.024H33.4695ZM60.1373 48.276C53.4493 48.276 49.6653 53.028 49.6653 58.836C49.6653 64.6 53.4493 69.396 60.1373 69.396C66.8693 69.396 70.6093 64.6 70.6093 58.836C70.6093 53.028 66.8693 48.276 60.1373 48.276ZM60.1373 68.648C56.9693 68.648 56.1333 66.8 56.1333 58.836C56.1333 50.872 56.9693 49.024 60.1373 49.024C63.3053 49.024 64.0973 50.872 64.0973 58.836C64.0973 66.8 63.3053 68.648 60.1373 68.648ZM85.8625 68.648C83.3545 68.648 80.6265 66.844 80.6265 61.3V55.712C80.6265 52.588 82.2105 50.124 85.2025 50.124C88.8105 50.124 90.4385 52.412 90.4385 59.452C90.4385 66.184 89.0745 68.648 85.8625 68.648ZM87.4025 48.276C85.2905 48.276 82.0345 49.376 80.6265 52.016V36.176L72.9265 37.804V38.552C74.7305 39.212 75.1705 39.872 75.1705 41.368V68.78C75.1705 69.484 77.8985 68.516 79.4825 67.152C80.9345 68.604 83.2665 69.396 85.9065 69.396C92.0665 69.396 96.7305 66.184 96.7305 59.1C96.7305 52.148 92.3305 48.276 87.4025 48.276ZM127.021 37.628C117.341 37.628 111.841 45.02 111.841 53.732C111.841 62.488 117.341 69.396 127.021 69.396C136.701 69.396 142.201 62.488 142.201 53.732C142.201 45.02 136.701 37.628 127.021 37.628ZM127.021 68.648C121.785 68.648 119.365 65.832 119.365 53.732C119.365 41.676 121.785 38.376 127.021 38.376C132.213 38.376 134.589 41.676 134.589 53.732C134.589 65.832 132.213 68.648 127.021 68.648ZM157.749 68.648C155.505 68.648 152.997 67.196 152.601 62.708V54.656C152.909 52.016 154.493 49.904 157.133 49.904C160.697 49.904 162.369 52.324 162.369 59.408C162.369 66.096 160.961 68.648 157.749 68.648ZM159.289 48.276C157.221 48.276 154.009 49.244 152.601 51.84V48.276L144.945 50.036V50.784C146.705 51.444 147.145 51.752 147.145 53.248V75.644C147.145 77.888 147.057 79.428 145.385 79.912V80.66H154.405V79.912C152.865 79.516 152.601 78.108 152.601 75.644V68.032C153.965 68.912 155.813 69.396 157.837 69.396C163.997 69.396 168.661 66.096 168.661 59.012C168.661 52.104 164.261 48.276 159.289 48.276ZM184.261 68.648C182.017 68.648 179.509 67.196 179.113 62.708V54.656C179.421 52.016 181.005 49.904 183.645 49.904C187.209 49.904 188.881 52.324 188.881 59.408C188.881 66.096 187.473 68.648 184.261 68.648ZM185.801 48.276C183.733 48.276 180.521 49.244 179.113 51.84V48.276L171.457 50.036V50.784C173.217 51.444 173.657 51.752 173.657 53.248V75.644C173.657 77.888 173.569 79.428 171.897 79.912V80.66H180.917V79.912C179.377 79.516 179.113 78.108 179.113 75.644V68.032C180.477 68.912 182.325 69.396 184.349 69.396C190.509 69.396 195.173 66.096 195.173 59.012C195.173 52.104 190.773 48.276 185.801 48.276ZM209.497 48.276C202.809 48.276 199.025 53.028 199.025 58.836C199.025 64.6 202.809 69.396 209.497 69.396C216.229 69.396 219.969 64.6 219.969 58.836C219.969 53.028 216.229 48.276 209.497 48.276ZM209.497 68.648C206.329 68.648 205.493 66.8 205.493 58.836C205.493 50.872 206.329 49.024 209.497 49.024C212.665 49.024 213.457 50.872 213.457 58.836C213.457 66.8 212.665 68.648 209.497 68.648ZM235.222 48.496C234.166 48.936 232.362 49.596 230.03 53.248V48.276L222.286 50.036V50.784C224.09 51.708 224.486 52.368 224.486 53.864V63.632C224.486 65.92 224.442 67.724 222.726 68.252V69H231.834V68.252C230.25 67.812 230.03 66.096 230.03 63.632V54.48C231.658 51.84 233.462 51.4 233.462 51.884C233.462 52.676 233.814 53.424 234.474 54.04C235.882 55.228 237.906 55.052 239.094 53.688C240.282 52.368 240.15 50.256 238.786 49.068C237.818 48.276 236.146 48.1 235.222 48.496ZM252.197 66.272C249.997 66.272 248.941 64.996 248.941 62.532V49.42H254.001L254.177 48.672H248.941V41.852L243.441 42.776V48.672H241.109L241.241 49.42H243.441V62.664C243.441 67.988 245.509 69.396 248.985 69.396C251.933 69.396 254.617 67.196 255.497 65.128L254.837 64.732C254.441 65.392 253.473 66.272 252.197 66.272ZM277.608 64.952V48.276L270.04 49.112V49.86C272.284 50.124 272.108 50.696 272.108 53.38V63.324C271.184 65.084 269.512 66.184 268.28 66.184C265.728 66.184 264.584 64.996 264.584 62.532V48.276L256.664 49.112V49.86C259.216 50.212 259.128 50.608 259.128 53.248V62.664C259.128 67.944 261.196 69.396 264.672 69.396C267.4 69.396 271.052 67.152 272.108 64.644V68.516C272.108 68.516 272.152 69.528 273.34 69.352L279.852 68.208V67.46C278.004 67.24 277.608 67.064 277.608 64.952ZM301.524 63.632V54.964C301.524 49.64 299.412 48.276 295.98 48.276C293.208 48.276 289.732 50.3 288.72 52.984V48.276L281.02 50.036V50.784C282.824 51.752 283.22 52.236 283.22 53.776V63.72C283.22 65.964 283.176 67.768 281.504 68.252V69H290.524V68.252C288.984 67.812 288.72 66.14 288.72 63.72V55.052C288.72 53.292 290.744 51.444 292.46 51.444C294.66 51.444 296.024 52.984 296.024 55.096V63.632C296.024 65.876 295.936 67.768 294.264 68.252V69H303.328V68.252C301.744 67.856 301.524 66.052 301.524 63.632ZM313.099 41.764C313.099 40.092 311.735 38.772 310.063 38.772C308.391 38.772 307.071 40.092 307.071 41.764C307.071 43.436 308.391 44.756 310.063 44.756C311.735 44.756 313.099 43.436 313.099 41.764ZM313.231 63.632V48.276L305.531 50.036V50.784C307.335 51.752 307.775 52.368 307.775 53.864V63.632C307.775 65.876 307.687 67.724 306.015 68.252V69H315.035V68.252C313.451 67.812 313.231 66.096 313.231 63.632ZM328.553 66.272C326.353 66.272 325.297 64.996 325.297 62.532V49.42H330.357L330.533 48.672H325.297V41.852L319.797 42.776V48.672H317.465L317.597 49.42H319.797V62.664C319.797 67.988 321.865 69.396 325.341 69.396C328.289 69.396 330.973 67.196 331.853 65.128L331.193 64.732C330.797 65.392 329.829 66.272 328.553 66.272ZM341.071 41.764C341.071 40.092 339.707 38.772 338.035 38.772C336.363 38.772 335.043 40.092 335.043 41.764C335.043 43.436 336.363 44.756 338.035 44.756C339.707 44.756 341.071 43.436 341.071 41.764ZM341.203 63.632V48.276L333.503 50.036V50.784C335.307 51.752 335.747 52.368 335.747 53.864V63.632C335.747 65.876 335.659 67.724 333.987 68.252V69H343.007V68.252C341.423 67.812 341.203 66.096 341.203 63.632ZM351.949 57.692C351.949 53.468 353.753 49.024 356.349 49.024C358.769 49.024 360.573 52.148 360.573 57.692H351.949ZM356.569 48.276C350.497 48.276 346.273 52.72 346.273 58.924C346.273 64.072 350.233 69.396 355.997 69.396C361.893 69.396 364.489 65.92 365.193 63.632L364.445 63.236C363.345 65.304 359.825 66.184 357.449 65.656C354.501 64.996 352.301 62.752 351.949 58.44H365.941C365.941 51.576 362.949 48.276 356.569 48.276ZM381.096 57.604L376.652 54.832C372.824 52.412 374.056 49.024 376.916 49.024C381.448 49.024 382.856 52.984 383.428 54.524H384.176V49.596C384.176 49.596 381.976 48.276 376.916 48.276C372.516 48.276 370.844 50.476 370.844 50.476C368.424 53.644 369.568 57.208 373.836 59.804L378.28 62.488C381.624 64.688 381.096 68.648 377.972 68.648C372.824 68.648 371.416 63.544 370.756 61.828H370.008V67.372C370.008 67.372 372.648 69.396 377.972 69.396C382.46 69.396 384.132 67.02 384.132 67.02C386.332 63.852 385.012 60.024 381.096 57.604Z" fill="black"/>
<circle cx="402" cy="67" r="4" fill="#FFCA41"/>
</svg>
