<svg width="281" height="96" viewBox="0 0 281 96" fill="none" xmlns="http://www.w3.org/2000/svg">
<circle cx="21.5" cy="50.5" r="21.5" fill="#36DAA1"/>
<path d="M112.71 4.84V5.52C115.99 5.52 115.99 6.56 115.99 14.08V25.72C115.99 34.4 112.79 37.76 109.35 39L109.51 39.68C116.03 38.72 121.95 35.36 121.95 25.72V9.2C121.95 6.64 123.63 5.52 125.43 5.52V4.84L112.71 4.84ZM136.953 14.16C130.873 14.16 127.433 18.48 127.433 23.76C127.433 29 130.873 33.36 136.953 33.36C143.073 33.36 146.473 29 146.473 23.76C146.473 18.48 143.073 14.16 136.953 14.16ZM136.953 32.68C134.073 32.68 133.313 31 133.313 23.76C133.313 16.52 134.073 14.84 136.953 14.84C139.833 14.84 140.553 16.52 140.553 23.76C140.553 31 139.833 32.68 136.953 32.68ZM160.34 32.68C158.06 32.68 155.58 31.04 155.58 26V20.92C155.58 18.08 157.02 15.84 159.74 15.84C163.02 15.84 164.5 17.92 164.5 24.32C164.5 30.44 163.26 32.68 160.34 32.68ZM161.74 14.16C159.82 14.16 156.86 15.16 155.58 17.56V3.16L148.58 4.64V5.32C150.22 5.92 150.62 6.52 150.62 7.88V32.8C150.62 33.44 153.1 32.56 154.54 31.32C155.86 32.64 157.98 33.36 160.38 33.36C165.98 33.36 170.22 30.44 170.22 24C170.22 17.68 166.22 14.16 161.74 14.16ZM29.9048 52.48C21.1048 52.48 16.1048 59.2 16.1048 67.12C16.1048 75.08 21.1048 81.36 29.9048 81.36C38.7048 81.36 43.7048 75.08 43.7048 67.12C43.7048 59.2 38.7048 52.48 29.9048 52.48ZM29.9048 80.68C25.1448 80.68 22.9448 78.12 22.9448 67.12C22.9448 56.16 25.1448 53.16 29.9048 53.16C34.6248 53.16 36.7848 56.16 36.7848 67.12C36.7848 78.12 34.6248 80.68 29.9048 80.68ZM57.8395 80.68C55.7995 80.68 53.5195 79.36 53.1595 75.28V67.96C53.4395 65.56 54.8795 63.64 57.2795 63.64C60.5195 63.64 62.0395 65.84 62.0395 72.28C62.0395 78.36 60.7595 80.68 57.8395 80.68ZM59.2395 62.16C57.3595 62.16 54.4395 63.04 53.1595 65.4V62.16L46.1995 63.76V64.44C47.7995 65.04 48.1995 65.32 48.1995 66.68V87.04C48.1995 89.08 48.1195 90.48 46.5995 90.92V91.6H54.7995V90.92C53.3995 90.56 53.1595 89.28 53.1595 87.04V80.12C54.3995 80.92 56.0795 81.36 57.9195 81.36C63.5195 81.36 67.7595 78.36 67.7595 71.92C67.7595 65.64 63.7595 62.16 59.2395 62.16ZM81.9411 80.68C79.9011 80.68 77.6211 79.36 77.2611 75.28V67.96C77.5411 65.56 78.9811 63.64 81.3811 63.64C84.6211 63.64 86.1411 65.84 86.1411 72.28C86.1411 78.36 84.8611 80.68 81.9411 80.68ZM83.3411 62.16C81.4611 62.16 78.5411 63.04 77.2611 65.4V62.16L70.3011 63.76V64.44C71.9011 65.04 72.3011 65.32 72.3011 66.68V87.04C72.3011 89.08 72.2211 90.48 70.7011 90.92V91.6H78.9011V90.92C77.5011 90.56 77.2611 89.28 77.2611 87.04V80.12C78.5011 80.92 80.1811 81.36 82.0211 81.36C87.6211 81.36 91.8611 78.36 91.8611 71.92C91.8611 65.64 87.8611 62.16 83.3411 62.16ZM104.883 62.16C98.8027 62.16 95.3627 66.48 95.3627 71.76C95.3627 77 98.8027 81.36 104.883 81.36C111.003 81.36 114.403 77 114.403 71.76C114.403 66.48 111.003 62.16 104.883 62.16ZM104.883 80.68C102.003 80.68 101.243 79 101.243 71.76C101.243 64.52 102.003 62.84 104.883 62.84C107.763 62.84 108.483 64.52 108.483 71.76C108.483 79 107.763 80.68 104.883 80.68ZM128.269 62.36C127.309 62.76 125.669 63.36 123.549 66.68V62.16L116.509 63.76V64.44C118.149 65.28 118.509 65.88 118.509 67.24V76.12C118.509 78.2 118.469 79.84 116.909 80.32V81H125.189V80.32C123.749 79.92 123.549 78.36 123.549 76.12V67.8C125.029 65.4 126.669 65 126.669 65.44C126.669 66.16 126.989 66.84 127.589 67.4C128.869 68.48 130.709 68.32 131.789 67.08C132.869 65.88 132.749 63.96 131.509 62.88C130.629 62.16 129.109 62 128.269 62.36ZM143.701 78.52C141.701 78.52 140.741 77.36 140.741 75.12V63.2H145.341L145.501 62.52H140.741V56.32L135.741 57.16V62.52H133.621L133.741 63.2H135.741V75.24C135.741 80.08 137.621 81.36 140.781 81.36C143.461 81.36 145.901 79.36 146.701 77.48L146.101 77.12C145.741 77.72 144.861 78.52 143.701 78.52ZM166.802 77.32V62.16L159.922 62.92V63.6C161.962 63.84 161.802 64.36 161.802 66.8V75.84C160.962 77.44 159.442 78.44 158.322 78.44C156.002 78.44 154.962 77.36 154.962 75.12V62.16L147.762 62.92V63.6C150.082 63.92 150.002 64.28 150.002 66.68V75.24C150.002 80.04 151.882 81.36 155.042 81.36C157.522 81.36 160.842 79.32 161.802 77.04V80.56C161.802 80.56 161.842 81.48 162.922 81.32L168.842 80.28V79.6C167.162 79.4 166.802 79.24 166.802 77.32ZM188.544 76.12V68.24C188.544 63.4 186.624 62.16 183.504 62.16C180.984 62.16 177.824 64 176.904 66.44V62.16L169.904 63.76V64.44C171.544 65.32 171.904 65.76 171.904 67.16V76.2C171.904 78.24 171.864 79.88 170.344 80.32V81H178.544V80.32C177.144 79.92 176.904 78.4 176.904 76.2V68.32C176.904 66.72 178.744 65.04 180.304 65.04C182.304 65.04 183.544 66.44 183.544 68.36V76.12C183.544 78.16 183.464 79.88 181.944 80.32V81H190.184V80.32C188.744 79.96 188.544 78.32 188.544 76.12ZM199.066 56.24C199.066 54.72 197.826 53.52 196.306 53.52C194.786 53.52 193.586 54.72 193.586 56.24C193.586 57.76 194.786 58.96 196.306 58.96C197.826 58.96 199.066 57.76 199.066 56.24ZM199.186 76.12V62.16L192.186 63.76V64.44C193.826 65.32 194.226 65.88 194.226 67.24V76.12C194.226 78.16 194.146 79.84 192.626 80.32V81H200.826V80.32C199.386 79.92 199.186 78.36 199.186 76.12ZM213.115 78.52C211.115 78.52 210.155 77.36 210.155 75.12V63.2L214.755 63.2L214.915 62.52L210.155 62.52V56.32L205.155 57.16V62.52H203.035L203.155 63.2H205.155V75.24C205.155 80.08 207.035 81.36 210.195 81.36C212.875 81.36 215.315 79.36 216.115 77.48L215.515 77.12C215.155 77.72 214.275 78.52 213.115 78.52ZM224.496 56.24C224.496 54.72 223.256 53.52 221.736 53.52C220.216 53.52 219.016 54.72 219.016 56.24C219.016 57.76 220.216 58.96 221.736 58.96C223.256 58.96 224.496 57.76 224.496 56.24ZM224.616 76.12V62.16L217.616 63.76V64.44C219.256 65.32 219.656 65.88 219.656 67.24V76.12C219.656 78.16 219.576 79.84 218.056 80.32V81H226.256V80.32C224.816 79.92 224.616 78.36 224.616 76.12ZM234.385 70.72C234.385 66.88 236.025 62.84 238.385 62.84C240.585 62.84 242.225 65.68 242.225 70.72L234.385 70.72ZM238.585 62.16C233.065 62.16 229.225 66.2 229.225 71.84C229.225 76.52 232.825 81.36 238.065 81.36C243.425 81.36 245.785 78.2 246.425 76.12L245.745 75.76C244.745 77.64 241.545 78.44 239.385 77.96C236.705 77.36 234.705 75.32 234.385 71.4L247.105 71.4C247.105 65.16 244.385 62.16 238.585 62.16ZM260.882 70.64L256.842 68.12C253.362 65.92 254.482 62.84 257.082 62.84C261.202 62.84 262.482 66.44 263.002 67.84H263.682V63.36C263.682 63.36 261.682 62.16 257.082 62.16C253.082 62.16 251.562 64.16 251.562 64.16C249.362 67.04 250.402 70.28 254.282 72.64L258.322 75.08C261.362 77.08 260.882 80.68 258.042 80.68C253.362 80.68 252.082 76.04 251.482 74.48H250.802V79.52C250.802 79.52 253.202 81.36 258.042 81.36C262.122 81.36 263.642 79.2 263.642 79.2C265.642 76.32 264.442 72.84 260.882 70.64Z" fill="black"/>
<circle cx="278" cy="81" r="3" fill="#FFCA41"/>
</svg>
