<svg width="16" height="16" viewBox="0 0 16 16" fill="none" xmlns="http://www.w3.org/2000/svg">
<path d="M15.1875 14.5625C15.5327 14.5625 15.8125 14.8423 15.8125 15.1875C15.8125 15.5327 15.5327 15.8125 15.1875 15.8125H0.8125C0.467324 15.8125 0.1875 15.5327 0.1875 15.1875C0.1875 14.8423 0.467324 14.5625 0.8125 14.5625H15.1875ZM14.2317 0.987036C15.3387 2.09393 15.3497 3.8817 14.2649 5.00223L14.2317 5.03598L5.92344 13.3443C5.80865 13.4591 5.65373 13.5247 5.49143 13.5274H2.31641C1.97469 13.5274 1.69701 13.2531 1.69141 12.9127V9.73727C1.69141 9.57495 1.75456 9.41899 1.8675 9.30241L1.87447 9.29534L10.1828 0.987017C11.3009 -0.131089 13.1137 -0.131089 14.2317 0.987017V0.987036ZM9.83541 3.10213L2.94141 9.99616V12.2774H5.22258L12.1166 5.38333L9.83541 3.10213ZM11.0857 1.85221L11.0667 1.8709L10.7193 2.21825L13.0005 4.49944L13.3479 4.15209C13.9715 3.52846 13.9777 2.52124 13.3666 1.88993L13.3479 1.8709C12.7242 1.24727 11.717 1.24104 11.0857 1.85221Z" fill="#94979B"/>
</svg>
