<svg width="24" height="24" viewBox="0 0 24 24" fill="none" xmlns="http://www.w3.org/2000/svg">
<path d="M15.75 17.25C17.1479 17.25 18.3224 18.2061 18.6555 19.5L22.3125 19.5C22.3622 19.5 22.4099 19.5198 22.4451 19.5549C22.4802 19.5901 22.5 19.6378 22.5 19.6875V20.8125C22.5 20.8622 22.4802 20.9099 22.4451 20.9451C22.4099 20.9802 22.3622 21 22.3125 21L18.6555 21C18.3224 22.2939 17.1479 23.25 15.75 23.25C14.3521 23.25 13.1776 22.2939 12.8445 21L1.6875 21C1.63777 21 1.59008 20.9802 1.55492 20.9451C1.51975 20.9099 1.5 20.8622 1.5 20.8125V19.6875C1.5 19.6378 1.51975 19.5901 1.55492 19.5549C1.59008 19.5198 1.63777 19.5 1.6875 19.5L12.8445 19.5C13.1776 18.2061 14.3521 17.25 15.75 17.25ZM15.75 18.75C14.9216 18.75 14.25 19.4216 14.25 20.25C14.25 21.0784 14.9216 21.75 15.75 21.75C16.5784 21.75 17.25 21.0784 17.25 20.25C17.25 19.4216 16.5784 18.75 15.75 18.75ZM6.75 9C8.14786 9 9.32243 9.95606 9.65548 11.25L22.3125 11.25C22.3622 11.25 22.4099 11.2698 22.4451 11.3049C22.4802 11.3401 22.5 11.3878 22.5 11.4375V12.5625C22.5 12.6122 22.4802 12.6599 22.4451 12.6951C22.4099 12.7302 22.3622 12.75 22.3125 12.75L9.65548 12.75C9.32243 14.0439 8.14786 15 6.75 15C5.35214 15 4.17757 14.0439 3.84452 12.75L1.6875 12.75C1.63777 12.75 1.59008 12.7302 1.55492 12.6951C1.51975 12.6599 1.5 12.6122 1.5 12.5625V11.4375C1.5 11.3878 1.51975 11.3401 1.55492 11.3049C1.59008 11.2698 1.63777 11.25 1.6875 11.25L3.84452 11.25C4.17757 9.95606 5.35214 9 6.75 9ZM6.75 10.5C5.92158 10.5 5.25 11.1716 5.25 12C5.25 12.8284 5.92158 13.5 6.75 13.5C7.57842 13.5 8.25 12.8284 8.25 12C8.25 11.1716 7.57842 10.5 6.75 10.5ZM17.25 0.75C18.6479 0.75 19.8224 1.70606 20.1555 2.99998L22.3125 3C22.3622 3 22.4099 3.01975 22.4451 3.05492C22.4802 3.09008 22.5 3.13777 22.5 3.1875V4.3125C22.5 4.36223 22.4802 4.40992 22.4451 4.44508C22.4099 4.48025 22.3622 4.5 22.3125 4.5L20.1555 4.50005C19.8224 5.79394 18.6479 6.75 17.25 6.75C15.8521 6.75 14.6776 5.79394 14.3445 4.50005L1.6875 4.5C1.63777 4.5 1.59008 4.48025 1.55492 4.44508C1.51975 4.40992 1.5 4.36223 1.5 4.3125V3.1875C1.5 3.13777 1.51975 3.09008 1.55492 3.05492C1.59008 3.01975 1.63777 3 1.6875 3L14.3445 2.99998C14.6776 1.70606 15.8521 0.75 17.25 0.75ZM17.25 2.25C16.4216 2.25 15.75 2.92158 15.75 3.75C15.75 4.57842 16.4216 5.25 17.25 5.25C18.0784 5.25 18.75 4.57842 18.75 3.75C18.75 2.92158 18.0784 2.25 17.25 2.25Z" fill="#202732"/>
</svg>
