<svg width="20" height="20" viewBox="0 0 20 20" fill="none" xmlns="http://www.w3.org/2000/svg">
<path d="M5.96515 6.52429H14.0004C14.3243 6.52429 14.5879 6.26082 14.5879 5.93693C14.5879 5.61305 14.3243 5.34961 14.0004 5.34961H5.96515C5.64126 5.34961 5.37769 5.61303 5.37769 5.93693C5.37769 6.26082 5.64126 6.52429 5.96515 6.52429Z" fill="#94979B" stroke="#94979B" stroke-width="0.4"/>
<path d="M5.96515 10.5237H14.0004C14.3243 10.5237 14.5879 10.2602 14.5879 9.9363C14.5879 9.61243 14.3243 9.34888 14.0004 9.34888H5.96515C5.64126 9.34888 5.37769 9.61243 5.37769 9.9363C5.37769 10.2602 5.64126 10.5237 5.96515 10.5237Z" fill="#94979B" stroke="#94979B" stroke-width="0.4"/>
<path d="M16.1109 1.38672H3.89254C2.52672 1.38672 1.41565 2.49779 1.41565 3.86354V12.0831C1.41565 13.4486 2.52672 14.5595 3.89254 14.5595H5.9654C6.28928 14.5595 6.55276 14.2959 6.55276 13.9721C6.55276 13.6483 6.28928 13.3847 5.9654 13.3847H3.89254C3.17452 13.3847 2.59043 12.8008 2.59043 12.0831V3.86354C2.59043 3.14557 3.17452 2.56147 3.89254 2.56147H16.1109C16.829 2.56147 17.4131 3.14557 17.4131 3.86354V12.0831C17.4131 12.8008 16.829 13.3847 16.1109 13.3847H10.0017L9.98835 13.3849C9.97317 13.3852 9.95799 13.3862 9.9435 13.3877C9.93444 13.3885 9.92557 13.3898 9.91702 13.3912L9.91465 13.3916C9.9053 13.3929 9.8959 13.3943 9.88563 13.3964C9.87614 13.3983 9.86676 13.4005 9.85739 13.4031L9.85434 13.4038C9.84596 13.4058 9.83784 13.408 9.83032 13.4103C9.82112 13.4132 9.81204 13.4163 9.80319 13.4197L9.79999 13.4208C9.79153 13.4238 9.78329 13.4269 9.77667 13.4296C9.76801 13.4332 9.75967 13.437 9.74989 13.4418L9.74782 13.4427C9.73977 13.4464 9.73182 13.4504 9.72305 13.4551C9.71563 13.4591 9.70838 13.4633 9.70024 13.4684L9.6978 13.4697C9.68985 13.4746 9.6819 13.4793 9.67434 13.4844C9.66528 13.4905 9.65649 13.4971 9.64793 13.5037L9.64721 13.5041C9.64102 13.5087 9.63477 13.5134 9.62797 13.519C9.61729 13.5277 9.60676 13.5371 9.59628 13.5471L9.59413 13.5488L5.54795 17.6321C5.43747 17.7435 5.37704 17.8913 5.37774 18.0481C5.37846 18.205 5.44022 18.3522 5.5517 18.4627C5.66241 18.5724 5.80926 18.6328 5.96508 18.6328C6.12307 18.6328 6.27116 18.571 6.38233 18.4589L10.2465 14.5594H16.1109C17.4766 14.5594 18.5879 13.4486 18.5879 12.0832V3.86354C18.5879 2.49779 17.4768 1.38672 16.1109 1.38672Z" fill="#94979B" stroke="#94979B" stroke-width="0.4"/>
</svg>
