<svg width="20" height="20" viewBox="0 0 20 20" fill="none" xmlns="http://www.w3.org/2000/svg">
<path d="M9.16536 10.0007C9.16536 10.4609 9.53846 10.834 9.9987 10.834C10.4589 10.834 10.832 10.4609 10.832 10.0007L10.832 1.66732C10.832 1.20708 10.4589 0.833984 9.9987 0.833984C9.53846 0.833984 9.16536 1.20708 9.16536 1.66732L9.16536 10.0007Z" fill="#94979B"/>
<path d="M14.168 6.66659C13.7077 6.66659 13.3346 6.2935 13.3346 5.83326C13.3346 5.37302 13.7077 4.99993 14.168 4.99993H15.0013C16.8423 4.99993 18.3346 6.49231 18.3346 8.33326V14.9999C18.3346 16.8409 16.8423 18.3333 15.0013 18.3333H5.0013C3.16035 18.3333 1.66797 16.8409 1.66797 14.9999V8.32747C1.66797 6.48653 3.16035 4.99414 5.0013 4.99414H5.83464C6.29488 4.99414 6.66797 5.36724 6.66797 5.82747C6.66797 6.28771 6.29488 6.66081 5.83464 6.66081H5.0013C4.08083 6.66081 3.33464 7.407 3.33464 8.32747V14.9999C3.33464 15.9204 4.08083 16.6666 5.0013 16.6666H15.0013C15.9218 16.6666 16.668 15.9204 16.668 14.9999V8.33326C16.668 7.41279 15.9218 6.66659 15.0013 6.66659H14.168Z" fill="#94979B"/>
<path d="M11.912 8.57806C12.2375 8.25263 12.7651 8.25263 13.0906 8.57806C13.416 8.9035 13.416 9.43114 13.0906 9.75657L10.5906 12.2566C10.2651 12.582 9.73748 12.582 9.41205 12.2566L6.91205 9.75657C6.58661 9.43114 6.58661 8.9035 6.91205 8.57806C7.23748 8.25263 7.76512 8.25263 8.09056 8.57806L10.0013 10.4888L11.912 8.57806Z" fill="#94979B"/>
</svg>
