<svg width="17" height="17" viewBox="0 0 17 17" fill="none" xmlns="http://www.w3.org/2000/svg">
<path d="M12.0925 10.6774H11.3472L11.0831 10.4227C12.0076 9.34722 12.5642 7.95099 12.5642 6.43212C12.5642 3.04533 9.81892 0.300049 6.43212 0.300049C3.04533 0.300049 0.300049 3.04533 0.300049 6.43212C0.300049 9.81892 3.04533 12.5642 6.43212 12.5642C7.95099 12.5642 9.34722 12.0076 10.4227 11.0831L10.6774 11.3472V12.0925L15.3944 16.8L16.8 15.3944L12.0925 10.6774ZM6.43212 10.6774C4.08307 10.6774 2.18684 8.78118 2.18684 6.43212C2.18684 4.08307 4.08307 2.18684 6.43212 2.18684C8.78118 2.18684 10.6774 4.08307 10.6774 6.43212C10.6774 8.78118 8.78118 10.6774 6.43212 10.6774Z" fill="#94979B"/>
</svg>
