<svg width="20" height="20" viewBox="0 0 20 20" fill="none" xmlns="http://www.w3.org/2000/svg">
<path d="M9.91912 16.0204C7.05369 16.0204 4.57146 14.0087 2.99412 12.3192C1.96306 11.2157 1.96306 9.48721 2.99412 8.3833C4.57146 6.69482 7.05369 4.68213 9.91912 4.68213C12.7845 4.68213 15.2668 6.69502 16.8435 8.3833C17.8752 9.48701 17.8752 11.2153 16.8435 12.3194C15.2668 14.0075 12.7849 16.0204 9.91912 16.0204ZM9.91912 5.81924C7.46189 5.81924 5.2488 7.63564 3.82537 9.15908C3.52474 9.48299 3.35768 9.90857 3.35768 10.3505C3.35768 10.7924 3.52474 11.218 3.82537 11.5419C5.24939 13.0653 7.46248 14.8817 9.91912 14.8817C12.3758 14.8817 14.5894 13.0653 16.0129 11.5419C16.3138 11.2182 16.4811 10.7925 16.4811 10.3505C16.4811 9.90846 16.3138 9.48282 16.0129 9.15908C14.5898 7.63662 12.3769 5.82021 9.91912 5.82021V5.81924Z" fill="#94979B" stroke="#94979B" stroke-width="0.2"/>
<path d="M9.91919 13.75C8.04536 13.75 6.52075 12.2256 6.52075 10.3516C6.52075 8.47754 8.04419 6.95312 9.91919 6.95312C11.7942 6.95312 13.3176 8.47656 13.3176 10.3516C13.3176 12.2266 11.793 13.75 9.91919 13.75ZM9.91919 8.09102C9.47199 8.09098 9.03483 8.22356 8.66299 8.47198C8.29114 8.72041 8.00132 9.07353 7.83018 9.48668C7.65904 9.89984 7.61426 10.3545 7.7015 10.7931C7.78875 11.2317 8.00411 11.6345 8.32034 11.9507C8.63657 12.2669 9.03946 12.4823 9.47807 12.5695C9.91668 12.6567 10.3713 12.6119 10.7844 12.4407C11.1976 12.2695 11.5507 11.9797 11.7991 11.6078C12.0475 11.2359 12.18 10.7988 12.1799 10.3516C12.1793 9.75211 11.9409 9.17738 11.5171 8.75345C11.0933 8.32952 10.5186 8.09101 9.91919 8.09023V8.09102Z" fill="#94979B" stroke="#94979B" stroke-width="0.2"/>
</svg>
